<svg width="38" height="25" viewBox="0 0 38 25" fill="none" xmlns="http://www.w3.org/2000/svg">
<path opacity="0.07" d="M35 0.5H3C1.3 0.5 0 1.8 0 3.5V21.5C0 23.2 1.4 24.5 3 24.5H35C36.7 24.5 38 23.2 38 21.5V3.5C38 1.8 36.6 0.5 35 0.5Z" fill="black"/>
<path d="M35 1.5C36.1 1.5 37 2.4 37 3.5V21.5C37 22.6 36.1 23.5 35 23.5H3C1.9 23.5 1 22.6 1 21.5V3.5C1 2.4 1.9 1.5 3 1.5H35Z" fill="#006FCF"/>
<path d="M22.0117 20.4366V12.0156L36.9997 12.0286V14.3546L35.2677 16.2066L36.9997 18.0736V20.4486H34.2337L32.7637 18.8266L31.3037 20.4546L22.0117 20.4346V20.4366Z" fill="white"/>
<path d="M23.0127 19.5114V12.9414H28.5847V14.4544H24.8167V15.4824H28.4947V16.9704H24.8167V17.9804H28.5847V19.5114H23.0127Z" fill="#006FCF"/>
<path d="M28.5566 19.5124L31.6396 16.2234L28.5566 12.9414H30.9426L32.8266 15.0244L34.7166 12.9424H36.9996V12.9934L33.9826 16.2234L36.9996 19.4204V19.5134H34.6926L32.7756 17.4104L30.8776 19.5144H28.5566V19.5124Z" fill="#006FCF"/>
<path d="M22.71 4.53906H26.324L27.593 7.42006V4.53906H32.053L32.823 6.69806L33.594 4.53906H37V12.9601H19L22.71 4.53906Z" fill="white"/>
<path d="M23.3945 5.45508L20.4785 12.0211H22.4785L23.0285 10.7061H26.0085L26.5585 12.0211H28.6085L25.7045 5.45508H23.3945ZM23.6445 9.23208L24.5195 7.14208L25.3925 9.23208H23.6445Z" fill="#006FCF"/>
<path d="M28.5811 12.0201V5.45312L31.3921 5.46312L32.8401 9.50012L34.2961 5.45412H37.0001V12.0191L35.2601 12.0351V7.52513L33.6161 12.0191H32.0261L30.3501 7.51013V12.0201H28.5821H28.5811Z" fill="#006FCF"/>
</svg>
