<svg width="38" height="25" viewBox="0 0 38 25" fill="none" xmlns="http://www.w3.org/2000/svg">
<path opacity="0.07" d="M35 0.5H3C1.3 0.5 0 1.8 0 3.5V21.5C0 23.2 1.4 24.5 3 24.5H35C36.7 24.5 38 23.2 38 21.5V3.5C38 1.8 36.6 0.5 35 0.5Z" fill="black"/>
<path d="M35 1.5C36.1 1.5 37 2.4 37 3.5V21.5C37 22.6 36.1 23.5 35 23.5H3C1.9 23.5 1 22.6 1 21.5V3.5C1 2.4 1.9 1.5 3 1.5H35Z" fill="white"/>
<path d="M15 19.5C18.866 19.5 22 16.366 22 12.5C22 8.63401 18.866 5.5 15 5.5C11.134 5.5 8 8.63401 8 12.5C8 16.366 11.134 19.5 15 19.5Z" fill="#EB001B"/>
<path d="M23 19.5C26.866 19.5 30 16.366 30 12.5C30 8.63401 26.866 5.5 23 5.5C19.134 5.5 16 8.63401 16 12.5C16 16.366 19.134 19.5 23 19.5Z" fill="#F79E1B"/>
<path d="M22 12.5008C22 10.1008 20.8 8.00078 19 6.80078C17.2 8.10078 16 10.2008 16 12.5008C16 14.8008 17.2 17.0008 19 18.2008C20.8 17.0008 22 14.9008 22 12.5008Z" fill="#FF5F00"/>
</svg>
