<svg width="24" height="22" viewBox="0 0 24 22" fill="none" xmlns="http://www.w3.org/2000/svg">
<path d="M0.651833 3.5625C1.61008 2.71496 2.84572 2.24801 4.125 2.25H19.875C21.2062 2.25 22.4218 2.74583 23.3482 3.5625C23.2416 2.71659 22.8299 1.93868 22.1904 1.3748C21.5509 0.810914 20.7276 0.499849 19.875 0.5H4.125C3.27241 0.499849 2.44908 0.810914 1.80958 1.3748C1.17009 1.93868 0.758408 2.71659 0.651833 3.5625ZM0.651833 7.0625C1.61008 6.21496 2.84572 5.74801 4.125 5.75H19.875C21.2062 5.75 22.4218 6.24583 23.3482 7.0625C23.2416 6.21659 22.8299 5.43868 22.1904 4.8748C21.5509 4.31091 20.7276 3.99985 19.875 4H4.125C3.27241 3.99985 2.44908 4.31091 1.80958 4.8748C1.17009 5.43868 0.758408 6.21659 0.651833 7.0625ZM4.125 7.5C3.19674 7.5 2.3065 7.86875 1.65013 8.52513C0.993749 9.1815 0.625 10.0717 0.625 11V18C0.625 18.9283 0.993749 19.8185 1.65013 20.4749C2.3065 21.1313 3.19674 21.5 4.125 21.5H19.875C20.8033 21.5 21.6935 21.1313 22.3499 20.4749C23.0063 19.8185 23.375 18.9283 23.375 18V11C23.375 10.0717 23.0063 9.1815 22.3499 8.52513C21.6935 7.86875 20.8033 7.5 19.875 7.5H15.5C15.2679 7.5 15.0454 7.59219 14.8813 7.75628C14.7172 7.92038 14.625 8.14294 14.625 8.375C14.625 9.07119 14.3484 9.73887 13.8562 10.2312C13.3639 10.7234 12.6962 11 12 11C11.3038 11 10.6361 10.7234 10.1438 10.2312C9.65156 9.73887 9.375 9.07119 9.375 8.375C9.375 8.14294 9.28281 7.92038 9.11872 7.75628C8.95462 7.59219 8.73206 7.5 8.5 7.5H4.125Z" fill="white"/>
</svg>
