<svg width="30" height="31" viewBox="0 0 30 31" fill="none" xmlns="http://www.w3.org/2000/svg">
<path d="M20.3872 16.9044C23.5307 11.7696 30.4215 15.2152 29.0902 21.0338C27.7874 26.7272 20.3872 29.7382 20.3872 29.7382C20.3872 29.7382 12.9864 26.7272 11.6843 21.0338C10.353 15.2152 17.2431 11.7693 20.3872 16.9044Z" stroke="#F7F6F4" stroke-width="1.09756"/>
<path d="M26.9383 15.1575C26.9555 14.8828 26.9642 14.6054 26.9642 14.3263C26.9639 7.07873 21.0897 1.20312 13.8433 1.20312C6.5968 1.20312 0.722656 7.07873 0.722656 14.3263C0.722656 21.5742 6.5968 27.4495 13.8433 27.4495C14.5795 27.4497 15.3145 27.3884 16.0406 27.2662" stroke="#F7F6F4" stroke-width="1.09756"/>
<path d="M9.95937 1.80078C9.95937 1.80078 13.8001 4.60359 11.9727 7.06542C10.1452 9.52725 9.80974 10.1613 9.69779 12.5485C9.58584 14.9357 9.04986 19.8143 1.85938 19.5754M19.079 2.33749C19.079 2.33749 14.8735 4.23042 15.955 6.99078C17.0364 9.75078 18.8156 8.12529 20.3928 9.56456C22.5184 11.5043 24.9586 10.9029 26.2234 10.1957" stroke="#F7F6F4" stroke-width="1.09756"/>
</svg>
