<svg width="111" height="16" viewBox="0 0 111 16" fill="none" xmlns="http://www.w3.org/2000/svg">
<g clip-path="url(#clip0_140_4914)">
<path d="M14.5066 10.317V10.0365C14.5066 6.82572 12.6297 4.83878 9.87768 4.83878C9.28391 4.84194 8.69665 4.96286 8.14993 5.19454C7.60321 5.42622 7.10789 5.76407 6.69264 6.18851C6.27241 6.60211 5.93935 7.09575 5.71314 7.64025C5.48693 8.18475 5.37216 8.76908 5.37561 9.35869C5.37561 10.5816 5.80867 11.6776 6.64111 12.5517C7.52507 13.4862 8.58642 13.9371 9.90345 13.9371C11.8309 13.9371 13.258 13.0194 14.0993 11.2188H11.3047C10.9222 11.5587 10.498 11.6945 9.98768 11.6945C8.88372 11.6945 8.21282 11.2188 7.99183 10.2922L14.5066 10.318V10.317ZM11.9498 8.51635H7.91552C8.0939 7.69283 8.85003 7.14878 9.91138 7.14878C10.9222 7.1577 11.6446 7.63337 11.9498 8.51635ZM24.1222 10.317V10.0365C24.1222 6.82572 22.2453 4.83878 19.4933 4.83878C18.8995 4.84194 18.3122 4.96286 17.7655 5.19454C17.2188 5.42622 16.7235 5.76407 16.3082 6.18851C15.888 6.60211 15.5549 7.09575 15.3287 7.64025C15.1025 8.18475 14.9877 8.76908 14.9912 9.35869C14.9912 10.5816 15.4243 11.6776 16.2567 12.5517C17.1407 13.4862 18.202 13.9371 19.519 13.9371C21.4465 13.9371 22.8735 13.0194 23.7149 11.2188H20.9203C20.5378 11.5587 20.1136 11.6945 19.6033 11.6945C18.4993 11.6945 17.8284 11.2188 17.6074 10.2922L24.1222 10.318V10.317ZM21.5575 8.51635H17.5222C17.7006 7.69283 18.4567 7.14878 19.519 7.14878C20.5298 7.1577 21.2602 7.63337 21.5575 8.51635ZM1.77435 7.03878V13.7488H4.27165V7.03878H5.28939V5.11031H4.26273V4.89824C4.26273 4.10743 4.44111 3.85274 5.21408 3.85274H5.28246V2.11157C5.13777 2.11157 5.00201 2.09473 4.88309 2.09473C2.75147 2.10365 1.7575 2.94401 1.7575 4.78725C1.7575 4.8804 1.77435 4.99932 1.77435 5.11031H0.839844V7.03878H1.77435ZM25.0825 7.03878V13.7488H27.5798V7.03878H28.5985V5.11031H27.5798V4.89824C27.5798 4.10743 27.7581 3.85274 28.5311 3.85274H28.5985V2.12049C28.4548 2.12049 28.319 2.10365 28.2001 2.10365C26.0675 2.10365 25.0735 2.94401 25.0735 4.78725C25.0735 4.8804 25.0904 4.99932 25.0904 5.11031H24.1569V7.03878H25.0825ZM37.6958 9.37455C37.6926 8.76819 37.5651 8.16893 37.3212 7.61378C37.0773 7.05863 36.7221 6.55939 36.2777 6.14689C35.4116 5.32238 34.3324 4.89824 33.0758 4.89824C31.9034 4.89824 30.7569 5.37392 29.8898 6.24797C29.4698 6.66154 29.137 7.15505 28.911 7.69937C28.685 8.24369 28.5703 8.82778 28.5737 9.41716C28.5737 10.6232 29.0068 11.7361 29.8392 12.6022C30.7222 13.5367 31.7845 13.9866 33.1006 13.9866C34.4007 13.9866 35.4958 13.5199 36.3798 12.6359C37.2627 11.7529 37.6958 10.6737 37.6958 9.37455ZM35.1737 9.44193C35.1737 10.6143 34.2561 11.5656 33.1353 11.5656C32.0303 11.5656 31.0958 10.6143 31.0958 9.44193C31.0958 8.25274 32.0135 7.30139 33.1353 7.30139C34.2561 7.30139 35.1737 8.24482 35.1737 9.44193Z" fill="#2A2F35"/>
<path d="M41.6034 7.96412C41.0106 7.92628 40.452 7.67311 40.0328 7.25225C39.6136 6.8314 39.3626 6.27185 39.3271 5.6789H44.6785V5.61944C44.6785 3.52151 43.3367 2.11133 41.4845 2.11133C39.5223 2.11133 38.1895 3.54727 38.1895 5.41529C38.1895 7.18223 39.565 8.73709 41.4419 8.73709C42.8095 8.73709 43.8886 7.98097 44.4743 6.57079H43.9392C43.7446 6.98577 43.4363 7.33701 43.05 7.58366C42.6637 7.83031 42.2153 7.96225 41.757 7.96412C41.7062 7.97281 41.6542 7.97281 41.6034 7.96412ZM48.3907 7.96412C48.9835 7.92628 49.5421 7.67311 49.9613 7.25225C50.3805 6.8314 50.6315 6.27185 50.667 5.6789H45.3157V5.61944C45.3157 3.52151 46.6575 2.11133 48.5096 2.11133C50.4718 2.11133 51.8057 3.54727 51.8057 5.41529C51.8057 7.18223 50.4292 8.73709 48.5522 8.73709C47.1847 8.73709 46.1055 7.98097 45.5198 6.57079H46.0629C46.2575 6.98592 46.566 7.33726 46.9525 7.58392C47.339 7.83059 47.7875 7.96243 48.246 7.96412C48.2939 7.97265 48.3429 7.97265 48.3907 7.96412Z" fill="#FFDD00"/>
<path d="M106.31 0.112305H59.7335C57.5443 0.112305 55.7695 1.88703 55.7695 4.07627V12.0042C55.7695 14.1934 57.5443 15.9682 59.7335 15.9682H106.31C108.499 15.9682 110.274 14.1934 110.274 12.0042V4.07627C110.274 1.88703 108.499 0.112305 106.31 0.112305Z" fill="#257F39"/>
<path d="M64.1938 12.0046H62.302L59.9355 5.40457H61.981L63.2415 9.51917H63.2653L64.5258 5.40457H66.5712L64.1938 12.0046ZM73.7936 9.30511H68.8465C68.9536 10.0543 69.5838 10.5538 70.3925 10.5538C70.9276 10.5538 71.2725 10.3516 71.5936 9.93538H73.6152C72.9849 11.3743 71.7838 12.2186 70.3925 12.2186C69.9333 12.2189 69.4785 12.1286 69.0542 11.953C68.6299 11.7774 68.2444 11.5199 67.9197 11.1952C67.595 10.8705 67.3375 10.485 67.1619 10.0607C66.9863 9.63636 66.896 9.18161 66.8963 8.72241C66.8963 6.81971 68.4184 5.17863 70.3568 5.17863C72.3309 5.17863 73.8411 6.73646 73.8411 8.78187C73.8411 8.97214 73.8292 9.12673 73.7936 9.30511ZM68.8703 7.97322H71.8671C71.7125 7.29538 71.1179 6.84349 70.3568 6.84349C69.6433 6.84349 69.0249 7.2716 68.8703 7.97322ZM76.9033 12.0046H74.9292V5.40457H76.7844V6.10619H76.8082C77.153 5.40457 77.7 5.17863 78.4611 5.17863V7.16457C77.2838 7.17646 76.9033 7.61646 76.9033 8.36565V12.0046ZM81.4906 4.70295H79.5155V3.20457H81.4896L81.4906 4.70295ZM81.4906 12.0046H79.5155V5.40457H81.4896L81.4906 12.0046ZM88.6386 12.0046H86.6646V6.90295H84.964V12.0046H82.99V6.90295H82.2527V5.40457H82.99V5.08349C82.99 3.76349 83.6916 3.03809 85.5467 3.03809H85.8083V4.52457H85.6656C85.1662 4.52457 84.964 4.76241 84.964 5.19052V5.40457H88.6386V12.0046ZM88.6386 4.69106H86.6646V3.20457H88.6386V4.69106ZM96.6012 9.30511H91.6552C91.7622 10.0543 92.3925 10.5538 93.2011 10.5538C93.7363 10.5538 94.0811 10.3516 94.4022 9.93538H96.4238C95.7936 11.3743 94.5925 12.2186 93.2011 12.2186C92.7419 12.2189 92.2872 12.1286 91.8629 11.953C91.4386 11.7774 91.0531 11.5199 90.7284 11.1952C90.4036 10.8705 90.1461 10.485 89.9705 10.0607C89.7949 9.63636 89.7047 9.18161 89.7049 8.72241C89.7049 6.81971 91.2271 5.17863 93.1655 5.17863C95.1395 5.17863 96.6498 6.73646 96.6498 8.78187C96.6498 8.97214 96.6379 9.12673 96.6022 9.30511H96.6012ZM91.678 7.97322H94.6747C94.5201 7.29538 93.9255 6.84349 93.1645 6.84349C92.451 6.84349 91.8326 7.2716 91.678 7.97322ZM104.622 12.0046H102.743V11.2911H102.72C102.351 11.8975 101.685 12.2186 100.746 12.2186C98.7477 12.2186 97.4396 10.6846 97.4396 8.68674C97.4396 6.71268 98.7834 5.17863 100.71 5.17863C101.471 5.17863 102.089 5.40457 102.648 5.96349V3.20457H104.622V12.0046ZM101.067 10.3754C102.03 10.3754 102.755 9.64998 102.755 8.67484C102.755 7.75917 102.054 7.02187 101.079 7.02187C100.151 7.02187 99.4137 7.7116 99.4137 8.67484C99.4137 9.67376 100.115 10.3754 101.067 10.3754Z" fill="white"/>
</g>
<defs>
<clipPath id="clip0_140_4914">
<rect width="110" height="15.8559" fill="white" transform="translate(0.839844 0.112305)"/>
</clipPath>
</defs>
</svg>
