<svg width="30" height="31" viewBox="0 0 30 31" fill="none" xmlns="http://www.w3.org/2000/svg">
<path d="M10 4.25C8.3424 4.25 6.75269 4.90848 5.58058 6.08058C4.40848 7.25269 3.75 8.8424 3.75 10.5V20.5C3.75 22.1576 4.40848 23.7473 5.58058 24.9194C6.75269 26.0915 8.3424 26.75 10 26.75H20C21.6576 26.75 23.2473 26.0915 24.4194 24.9194C25.5915 23.7473 26.25 22.1576 26.25 20.5V10.5C26.25 8.8424 25.5915 7.25269 24.4194 6.08058C23.2473 4.90848 21.6576 4.25 20 4.25H10ZM22.5 6.75C22.8315 6.75 23.1495 6.8817 23.3839 7.11612C23.6183 7.35054 23.75 7.66848 23.75 8C23.75 8.33152 23.6183 8.64946 23.3839 8.88388C23.1495 9.1183 22.8315 9.25 22.5 9.25C22.1685 9.25 21.8505 9.1183 21.6161 8.88388C21.3817 8.64946 21.25 8.33152 21.25 8C21.25 7.66848 21.3817 7.35054 21.6161 7.11612C21.8505 6.8817 22.1685 6.75 22.5 6.75ZM15 9.25C15.8208 9.25008 16.6336 9.41184 17.392 9.72604C18.1503 10.0402 18.8393 10.5007 19.4197 11.0812C20 11.6617 20.4604 12.3508 20.7744 13.1092C21.0885 13.8676 21.2501 14.6804 21.25 15.5013C21.2499 16.3221 21.0882 17.1349 20.774 17.8932C20.4598 18.6515 19.9993 19.3406 19.4188 19.9209C18.8383 20.5013 18.1492 20.9616 17.3908 21.2757C16.6324 21.5897 15.8196 21.7513 14.9987 21.7512C13.341 21.7511 11.7512 21.0924 10.5791 19.92C9.40697 18.7477 8.74858 17.1578 8.74875 15.5C8.74892 13.8422 9.40762 12.2524 10.58 11.0803C11.7523 9.90822 13.3422 9.24983 15 9.25ZM15 11.75C14.0054 11.75 13.0516 12.1451 12.3483 12.8483C11.6451 13.5516 11.25 14.5054 11.25 15.5C11.25 16.4946 11.6451 17.4484 12.3483 18.1517C13.0516 18.8549 14.0054 19.25 15 19.25C15.9946 19.25 16.9484 18.8549 17.6517 18.1517C18.3549 17.4484 18.75 16.4946 18.75 15.5C18.75 14.5054 18.3549 13.5516 17.6517 12.8483C16.9484 12.1451 15.9946 11.75 15 11.75Z" fill="#EFECDA"/>
</svg>
