<?xml version="1.0" standalone="no"?>
<!DOCTYPE svg PUBLIC "-//W3C//DTD SVG 20010904//EN"
 "http://www.w3.org/TR/2001/REC-SVG-20010904/DTD/svg10.dtd">
<svg version="1.0" xmlns="http://www.w3.org/2000/svg"
 width="3045.000000pt" height="611.000000pt" viewBox="0 0 3045.000000 611.000000"
 preserveAspectRatio="xMidYMid meet">

<g transform="translate(0.000000,611.000000) scale(0.100000,-0.100000)"
fill="#000000" stroke="none">
<path d="M13270 2085 l0 -1275 95 0 95 0 0 153 0 152 63 -67 c79 -85 152 -140
247 -188 97 -49 164 -68 273 -80 262 -27 522 75 706 276 71 77 104 127 156
236 58 121 85 226 92 365 21 404 -174 775 -492 936 -176 88 -426 101 -613 31
-112 -42 -259 -149 -349 -256 -25 -29 -49 -54 -54 -56 -5 -2 -9 225 -9 522 l0
526 -105 0 -105 0 0 -1275z m1040 361 c236 -80 416 -311 466 -598 28 -162 5
-305 -76 -474 -119 -246 -352 -403 -599 -404 -205 0 -458 137 -564 307 -53 85
-57 113 -57 437 l0 301 45 78 c54 92 155 202 243 264 70 50 182 98 264 112 78
14 197 4 278 -23z"/>
<path d="M17050 2085 l0 -1275 95 0 95 0 0 149 0 148 88 -87 c143 -143 297
-218 490 -240 191 -21 364 22 537 134 182 119 312 297 382 523 25 82 27 101
27 278 1 220 -13 292 -88 451 -162 343 -437 519 -781 501 -60 -4 -135 -13
-165 -21 -135 -37 -288 -139 -406 -270 l-61 -67 -7 62 c-3 34 -6 271 -6 525
l0 464 -100 0 -100 0 0 -1275z m1022 365 c296 -92 503 -421 485 -770 -17 -334
-251 -628 -553 -696 -226 -50 -495 50 -655 243 -90 109 -99 157 -96 523 2 237
4 269 21 300 94 176 247 318 414 386 118 47 260 53 384 14z"/>
<path d="M26050 3155 l0 -175 115 0 115 0 0 175 0 175 -115 0 -115 0 0 -175z"/>
<path d="M24230 2040 l0 -1200 115 0 115 0 0 328 1 327 155 128 c86 71 161
130 167 133 7 2 162 -203 346 -456 l335 -460 138 0 c76 0 138 2 138 5 0 3
-173 247 -385 541 -212 294 -385 538 -384 542 0 4 164 149 365 322 200 173
364 316 364 317 0 2 -69 3 -152 3 l-153 0 -465 -407 -465 -406 -3 742 -2 741
-115 0 -115 0 0 -1200z"/>
<path d="M28140 2758 l0 -483 -38 60 c-82 128 -243 238 -397 270 -91 19 -246
19 -343 0 -146 -29 -305 -127 -398 -243 -59 -74 -138 -236 -163 -337 -34 -131
-47 -307 -33 -443 16 -150 43 -255 96 -367 103 -216 259 -350 475 -406 111
-30 280 -30 385 0 163 45 321 154 397 273 l34 53 3 -148 3 -147 104 0 105 0 0
1200 0 1200 -115 0 -115 0 0 -482z m-446 -344 c287 -74 460 -372 443 -759 -19
-414 -248 -675 -592 -675 -95 1 -148 12 -224 47 -77 36 -186 148 -233 238
-133 256 -133 624 0 880 68 130 205 245 329 274 63 15 210 12 277 -5z"/>
<path d="M15806 2655 c-38 -8 -98 -24 -135 -36 -75 -24 -301 -137 -345 -173
l-30 -23 29 -56 c48 -96 52 -97 137 -44 275 172 534 214 746 121 60 -26 163
-119 198 -180 51 -87 66 -150 71 -303 l6 -144 -24 6 c-13 3 -73 17 -133 31
-509 119 -967 -10 -1109 -312 -28 -59 -32 -79 -35 -173 -7 -175 41 -302 157
-418 57 -57 178 -128 256 -150 80 -23 196 -31 296 -20 226 23 386 90 550 231
l57 48 3 -73 c3 -56 9 -80 27 -105 29 -39 81 -67 145 -76 71 -11 83 -3 90 52
7 62 -3 142 -17 142 -7 0 -21 6 -32 14 -18 14 -19 35 -25 563 -6 606 -5 594
-74 738 -78 161 -226 280 -410 330 -84 23 -310 29 -399 10z m424 -940 c47 -9
122 -27 168 -41 l82 -25 0 -166 c0 -151 -2 -171 -22 -212 -32 -68 -160 -190
-238 -228 -163 -79 -380 -112 -510 -78 -178 46 -294 168 -322 339 -30 181 93
336 317 401 33 10 82 21 110 26 75 12 318 3 415 -16z"/>
<path d="M18879 2618 c19 -49 91 -211 435 -981 196 -439 356 -804 356 -811 0
-21 -134 -338 -188 -445 -60 -119 -79 -134 -180 -139 -42 -3 -80 -9 -84 -16
-4 -6 -8 -50 -8 -98 l0 -88 80 0 c179 0 289 52 346 162 23 45 1014 2422 1014
2433 0 3 -47 5 -104 5 l-104 0 -79 -192 c-44 -106 -190 -462 -324 -790 -134
-329 -246 -598 -249 -598 -3 0 -160 355 -350 790 l-345 790 -112 0 -113 0 9
-22z"/>
<path d="M29315 2600 c-187 -40 -329 -139 -396 -276 -33 -66 -34 -73 -34 -189
0 -113 2 -124 31 -185 52 -111 156 -195 304 -246 39 -14 162 -45 273 -70 224
-50 280 -66 349 -100 181 -91 223 -284 91 -419 -87 -87 -225 -135 -392 -135
-161 0 -286 44 -374 132 -51 51 -93 129 -103 191 l-7 37 -115 0 -115 0 7 -47
c16 -123 81 -250 172 -336 132 -127 379 -192 627 -167 307 31 516 165 578 372
18 58 21 88 17 176 -4 96 -8 114 -38 175 -45 92 -112 157 -213 207 -67 33
-129 51 -342 99 -143 33 -284 69 -314 80 -159 63 -238 174 -211 295 15 68 33
98 85 144 75 66 152 87 315 87 118 -1 143 -4 195 -24 118 -46 197 -126 225
-226 l13 -45 113 0 114 0 -6 28 c-51 236 -162 359 -389 432 -102 33 -333 38
-460 10z"/>
<path d="M26050 1705 l0 -865 115 0 115 0 0 865 0 865 -115 0 -115 0 0 -865z"/>
</g>
</svg>
