<svg width="26" height="27" viewBox="0 0 26 27" fill="none" xmlns="http://www.w3.org/2000/svg">
<path d="M13 23.5508C18.3848 23.5508 22.75 19.1856 22.75 13.8008C22.75 8.41607 18.3848 4.05078 13 4.05078C7.61529 4.05078 3.25 8.41607 3.25 13.8008C3.25 19.1856 7.61529 23.5508 13 23.5508Z" stroke="#444B59" stroke-width="1.625" stroke-linecap="round" stroke-linejoin="round"/>
<path d="M13 17.0508C15.2437 17.0508 17.0625 15.232 17.0625 12.9883C17.0625 10.7446 15.2437 8.92578 13 8.92578C10.7563 8.92578 8.9375 10.7446 8.9375 12.9883C8.9375 15.232 10.7563 17.0508 13 17.0508Z" stroke="#444B59" stroke-width="1.625" stroke-linecap="round" stroke-linejoin="round"/>
<path d="M6.47949 21.0529C6.93673 20.1524 7.57556 19.3563 8.35571 18.7149C9.13586 18.0734 10.0404 17.6006 11.0124 17.3261C11.9844 17.0516 13.0026 16.9814 14.0031 17.1199C15.0035 17.2585 15.9644 17.6027 16.8252 18.131C17.976 18.8375 18.9088 19.8488 19.5201 21.0529" stroke="#444B59" stroke-width="1.625" stroke-linecap="round" stroke-linejoin="round"/>
</svg>
