<svg width="25" height="25" viewBox="0 0 25 25" fill="none" xmlns="http://www.w3.org/2000/svg">
<path d="M4.43604 19.5156H1.38086V3.73047H14.3809V6.73047H20.3811L23.3811 12.7305V19.5156H20.3811" stroke="#444B59" stroke-width="1.6"/>
<path d="M9.38086 19.5156H15.3809" stroke="#444B59" stroke-width="1.6"/>
<path d="M23.3811 12.7305H14.3809V6.73047" stroke="#444B59" stroke-width="1.6"/>
<path d="M4.38086 19.2305C4.38086 19.8935 4.64425 20.5294 5.11309 20.9983C5.58193 21.4671 6.21782 21.7305 6.88086 21.7305C7.5439 21.7305 8.17979 21.4671 8.64863 20.9983C9.11747 20.5294 9.38086 19.8935 9.38086 19.2305C9.38086 18.5675 9.11747 17.9316 8.64863 17.4627C8.17979 16.9939 7.5439 16.7305 6.88086 16.7305C6.21782 16.7305 5.58193 16.9939 5.11309 17.4627C4.64425 17.9316 4.38086 18.5675 4.38086 19.2305Z" stroke="#444B59" stroke-width="1.6"/>
<path d="M15.3809 19.2305C15.3809 19.8935 15.6443 20.5294 16.1131 20.9983C16.582 21.4671 17.2179 21.7305 17.8809 21.7305C18.5439 21.7305 19.1798 21.4671 19.6487 20.9983C20.1175 20.5294 20.3809 19.8935 20.3809 19.2305C20.3809 18.5675 20.1175 17.9316 19.6487 17.4627C19.1798 16.9939 18.5439 16.7305 17.8809 16.7305C17.2179 16.7305 16.582 16.9939 16.1131 17.4627C15.6443 17.9316 15.3809 18.5675 15.3809 19.2305Z" stroke="#444B59" stroke-width="1.6"/>
</svg>
