<svg width="21" height="21" viewBox="0 0 21 21" fill="none" xmlns="http://www.w3.org/2000/svg">
<path d="M2.39008 17.7295H1.08008V1.48633H14.8686V5.56828H15.8164C18.1957 5.56828 20.1245 7.49706 20.1245 9.87633V17.7297H18.6813M14.2298 17.7295H6.84105" stroke="#F7F6F4" stroke-width="0.731707"/>
<path d="M14.8524 11.2431H18.5275V10.2016C18.5275 8.53823 17.1788 7.18945 15.5151 7.18945H14.8522L14.8524 11.2431ZM18.6512 18.0997C18.6992 17.8108 18.6897 17.5152 18.6232 17.23C18.5567 16.9447 18.4346 16.6754 18.2639 16.4375C18.0931 16.1995 17.877 15.9976 17.6281 15.8433C17.3791 15.689 17.1022 15.5854 16.8131 15.5383C16.524 15.4913 16.2285 15.5018 15.9435 15.5692C15.6584 15.6366 15.3895 15.7596 15.1521 15.9311C14.9147 16.1027 14.7135 16.3194 14.5601 16.5688C14.4066 16.8183 14.3039 17.0956 14.2578 17.3848C14.1664 17.9659 14.3088 18.5595 14.6539 19.0359C14.9989 19.5123 15.5185 19.8327 16.0991 19.9272C16.6797 20.0216 17.274 19.8824 17.7522 19.5399C18.2305 19.1974 18.5537 18.6798 18.6512 18.0997ZM6.81169 18.0995C6.86212 17.8095 6.85454 17.5124 6.78939 17.2254C6.72424 16.9384 6.60282 16.6671 6.43214 16.4274C6.26146 16.1876 6.04492 15.9841 5.79505 15.8286C5.54518 15.673 5.26695 15.5686 4.97646 15.5213C4.68597 15.4741 4.38898 15.4849 4.1027 15.5532C3.81641 15.6214 3.54651 15.7458 3.30862 15.9191C3.07073 16.0924 2.86957 16.3111 2.71678 16.5627C2.56399 16.8142 2.46261 17.0936 2.41851 17.3846C2.32378 17.9671 2.46431 18.5634 2.80918 19.0423C3.15405 19.5213 3.67503 19.8436 4.25754 19.9385C4.84011 20.0333 5.43647 19.8928 5.91546 19.5479C6.39445 19.203 6.71683 18.682 6.81169 18.0995Z" stroke="#F7F6F4" stroke-width="0.731707"/>
<path d="M3.97203 19.8736C3.00471 20.0341 2.03618 20.2419 1.08008 20.506M15.3501 19.6855C12.7862 19.3899 9.42374 19.2053 5.92447 19.5755M20.0806 20.5111C20.0806 20.5111 18.8708 20.2131 16.9159 19.927" stroke="#F7F6F4" stroke-width="0.731707"/>
</svg>
