<svg width="38" height="25" viewBox="0 0 38 25" fill="none" xmlns="http://www.w3.org/2000/svg">
<path opacity="0.07" d="M35 0.5H3C1.3 0.5 0 1.8 0 3.5V21.5C0 23.2 1.4 24.5 3 24.5H35C36.7 24.5 38 23.2 38 21.5V3.5C38 1.8 36.6 0.5 35 0.5Z" fill="black"/>
<path d="M35 1.5C36.1 1.5 37 2.4 37 3.5V21.5C37 22.6 36.1 23.5 35 23.5H3C1.9 23.5 1 22.6 1 21.5V3.5C1 2.4 1.9 1.5 3 1.5H35Z" fill="white"/>
<path d="M28.3 10.6H28C27.6 11.6 27.3 12.1 27 13.6H28.9C28.6 12.1 28.6 11.4 28.3 10.6ZM31.2 16.5H29.5C29.4 16.5 29.4 16.5 29.3 16.4L29.1 15.5L29 15.3H26.6C26.5 15.3 26.4 15.3 26.4 15.5L26.1 16.4C26.1 16.5 26 16.5 26 16.5H23.9L24.1 16L27 9.2C27 8.7 27.3 8.5 27.8 8.5H29.3C29.4 8.5 29.5 8.5 29.5 8.7L30.9 15.2C31 15.6 31.1 15.9 31.1 16.3C31.2 16.4 31.2 16.4 31.2 16.5ZM17.8 16.2L18.2 14.4C18.3 14.4 18.4 14.5 18.4 14.5C19.1 14.8 19.8 15 20.5 14.9C20.7 14.9 21 14.8 21.2 14.7C21.7 14.5 21.7 14 21.3 13.6C21.1 13.4 20.8 13.3 20.5 13.1C20.1 12.9 19.7 12.7 19.4 12.4C18.2 11.4 18.6 10 19.3 9.3C19.9 8.9 20.2 8.5 21 8.5C22.2 8.5 23.5 8.5 24.1 8.7H24.2C24.1 9.3 24 9.8 23.8 10.4C23.3 10.2 22.8 10 22.3 10C22 10 21.7 10 21.4 10.1C21.2 10.1 21.1 10.2 21 10.3C20.8 10.5 20.8 10.8 21 11L21.5 11.4C21.9 11.6 22.3 11.8 22.6 12C23.1 12.3 23.6 12.8 23.7 13.4C23.9 14.3 23.6 15.1 22.8 15.7C22.3 16.1 22.1 16.3 21.4 16.3C20 16.3 18.9 16.4 18 16.1C17.9 16.3 17.9 16.3 17.8 16.2ZM14.3 16.5C14.4 15.8 14.4 15.8 14.5 15.5C15 13.3 15.5 11 15.9 8.8C16 8.6 16 8.5 16.2 8.5H18C17.8 9.7 17.6 10.6 17.3 11.7C17 13.2 16.7 14.7 16.3 16.2C16.3 16.4 16.2 16.4 16 16.4M5 8.7C5 8.6 5.2 8.5 5.3 8.5H8.7C9.2 8.5 9.6 8.8 9.7 9.3L10.6 13.7C10.6 13.8 10.6 13.8 10.7 13.9C10.7 13.8 10.8 13.8 10.8 13.8L12.9 8.7C12.8 8.6 12.9 8.5 13 8.5H15.1C15.1 8.6 15.1 8.6 15 8.7L11.9 16C11.8 16.2 11.8 16.3 11.7 16.4C11.6 16.5 11.4 16.4 11.2 16.4H9.7C9.6 16.4 9.5 16.4 9.5 16.2L7.9 10C7.7 9.8 7.4 9.5 7 9.4C6.4 9.1 5.3 8.9 5.1 8.9L5 8.7Z" fill="#142688"/>
</svg>
