<?xml version="1.0" encoding="utf-8"?>
<!-- Generator: Adobe Illustrator 26.0.1, SVG Export Plug-In . SVG Version: 6.00 Build 0)  -->
<svg version="1.1" id="Layer_1" xmlns="http://www.w3.org/2000/svg" xmlns:xlink="http://www.w3.org/1999/xlink" x="0px" y="0px"
	 viewBox="0 0 164 40" style="enable-background:new 0 0 164 40;" xml:space="preserve">
<g>
	<path d="M100.8,37.4c0.7,0,1.3,0.1,1.9,0.1c0,0.1,0,0.2,0,0.2c-2.5,0-5.1,0-7.6,0c0-0.1,0-0.2,0-0.2c0.5,0,1.1-0.1,1.7-0.1
		c0-0.3,0-0.6,0-0.9c0-6.2,0-12.4,0-18.6c0-0.8,0.1-1.7-0.8-2.2c-0.9-0.5-1.7,0-2.4,0.6c-1.2,0.9-1.9,2-1.9,3.6c0,5.4,0,10.9,0,16.3
		c0,0.4,0,0.7,0,1.2c0.7,0,1.3,0,1.9,0c0,0.1,0,0.2,0,0.3c-2.8,0-5.7,0-8.5,0c0-0.1,0-0.1,0-0.2c0.9,0,1.8,0,2.8,0
		c0-12,0-23.8,0-35.7c-0.9,0-1.8,0-2.7,0c0-0.1,0-0.2,0-0.3c0.2,0,0.5-0.1,0.7-0.1c1.6,0,3.3,0,4.9,0c0.8,0,1.1,0.2,1.1,1
		c0,4.6,0,9.1,0,13.7c0,0.3,0,0.7,0,1.3c0.4-0.4,0.6-0.7,0.9-1c2.5-2.4,6.7-1.7,7.8,1.3c0.3,0.8,0.4,1.7,0.4,2.5
		c0,5.2,0,10.4,0,15.7C100.8,36.3,100.8,36.8,100.8,37.4z"/>
	<path d="M17.4,19.2c0,6.1,0,12.1,0,18.1c3.3,0.5,5.2,0.2,7.1-2.7c1.6-2.4,2.2-5.2,2.5-8.1c0-0.3,0-0.6,0.3-0.9c0,4,0,8.1,0,12.2
		c-5.8,0-11.7,0-17.5,0c0-0.1,0-0.2,0-0.2c1.2,0,2.4,0,3.6,0c0-12.1,0-24.1,0-36.2c-1.2,0-2.4,0-3.6,0c0-0.1,0-0.2,0-0.2
		C15.5,1,21.2,1,27,1c0,3.9,0,7.8,0,11.8c-0.1,0-0.1,0-0.2,0c-0.1-0.7-0.1-1.4-0.3-2C26,8.9,25.5,7,24.9,5.1
		c-0.3-0.8-0.8-1.5-1.3-2.2c-0.9-1.1-2-1.7-3.4-1.7c-0.9,0-1.7,0-2.7,0c0,5.8,0,11.5,0,17.2c1.5,0.2,2.6-0.4,3.5-1.6
		c1.2-1.5,1.3-3.4,1.5-5.2c0-0.2,0-0.4,0-0.7c0,0,0.1-0.1,0.1-0.2c0,5.3,0,10.5,0,15.8c-0.1,0-0.1,0-0.2,0c-0.1-1-0.1-2-0.4-2.9
		c-0.3-1.1-0.7-2.2-1.2-3.1C20.2,19.6,18.9,19.1,17.4,19.2z"/>
	<path d="M63.9,37.4c0.5,0,1,0.1,1.5,0.1c0,0.1,0,0.2,0,0.2c-2.7,0-5.4,0-8.1,0c0-0.1,0-0.1,0-0.2c0.9,0,1.7,0,2.7,0
		c0-7.3,0-14.4,0-21.6c-0.9,0-1.8,0-2.6,0c0-0.1,0-0.2,0-0.2c2.1,0,4.2,0,6.5,0c0,0.5,0.1,1,0.1,1.6c0.3-0.4,0.5-0.6,0.7-0.8
		c1.2-1.4,2.8-1.9,4.6-1.3c1.8,0.6,2.9,1.9,3,3.7c0.1,2.8,0.1,5.7,0.1,8.5c0,3.1,0,6.2,0,9.3c0,0.2,0,0.4,0,0.6
		c0.4,0,0.8,0.1,1.2,0.1c0,0.1,0,0.1,0,0.2c-2.2,0-4.4,0-6.5,0c0-0.1,0-0.1,0-0.2c0.4-0.1,0.8-0.1,1.3-0.2c0-0.3,0-0.6,0-0.9
		c0-6.4,0-12.7,0-19.1c0-0.2,0-0.4,0-0.7c-0.2-1.1-1-1.6-2-1c-1.3,0.8-2.2,2-2.2,3.6c-0.1,5.9,0,11.8,0,17.7
		C63.8,37.2,63.9,37.3,63.9,37.4z"/>
	<path d="M127.3,23.8c-1,4.7-2,9.5-3.1,14.2c-0.1,0-0.2,0-0.2,0c-0.3-0.8-0.5-1.6-0.8-2.4c-1.9-6.2-3.9-12.3-5.7-18.5
		c-0.3-0.9-0.6-1.3-1.6-1.1c-0.4,0.1-0.8,0-1.2-0.2c2.7,0,5.5,0,8.2,0c0,0.1,0,0.1,0,0.2c-0.6,0-1.1,0.1-1.8,0.1
		c1.3,4.9,2.7,9.7,4,14.5c0.1,0,0.1,0,0.2,0c1.1-5.1,2.2-10.2,3.3-15.4c0.1,0,0.2,0,0.2,0c1.4,5.2,2.7,10.4,4.1,15.6
		c0.1,0,0.1,0,0.2,0c1.3-4.9,2.5-9.7,3.8-14.7c-0.8,0-1.5,0-2.2,0c0-0.1,0-0.2,0-0.2c1.7,0,3.4,0,5.1,0c0,0.1,0,0.1,0,0.2
		c-0.8,0-1.6,0-2.5,0c-1.9,7.4-3.8,14.7-5.7,22c-0.1,0-0.2,0-0.2,0c-1.3-4.7-2.7-9.5-4-14.2C127.4,23.8,127.3,23.8,127.3,23.8z"/>
	<path d="M43.9,34.2c-0.1,2.3-1.1,3.8-2.7,4c-1.7,0.2-3-0.5-3.6-2.4c-0.1,0.2-0.2,0.3-0.3,0.4c-1.7,2.5-5.3,2.6-7.1,0.2
		c-2.4-3.2-1.4-7.9,2.2-9.8c1.1-0.6,2.2-1,3.2-1.5c1.4-0.7,2.2-1.7,2-3.4c-0.1-1.5,0-3-0.2-4.5c-0.2-1.6-1.2-2.2-2.6-1.9
		c-1.3,0.3-1.9,1.6-1.5,3c0.1,0.5,0.3,0.9,0.3,1.4c0.1,1.2-0.5,2-1.7,2.1c-1.1,0-1.7-0.7-1.7-1.9c0-3,3.1-5.4,6.3-4.9
		c3.2,0.5,4.5,2.1,4.4,5.3c-0.1,5.2-0.1,10.3-0.1,15.5c0,0.2-0.1,0.4,0,0.6c0.2,0.4,0.3,0.9,0.6,1c0.3,0.1,0.9-0.1,1.1-0.3
		c0.5-0.6,0.8-1.4,1.1-2C43.8,34.7,43.8,34.4,43.9,34.2z M37.5,24.6c-1,0.5-2.1,1-3,1.6c-0.6,0.4-1.3,1-1.4,1.6
		c-0.7,2.8-0.7,5.6,0,8.4c0.3,1.5,1.7,1.8,2.9,0.8c1-0.8,1.5-1.9,1.5-3.2C37.5,30.7,37.5,27.6,37.5,24.6z"/>
	<path d="M117.6,34.2c0.1,1.8-1.1,3.7-2.6,4c-1.8,0.4-3.1-0.4-3.8-2.3c-0.2,0.2-0.3,0.3-0.4,0.5c-1.6,2.4-5.2,2.5-7,0.2
		c-2.4-3.2-1.5-7.9,2-9.8c1-0.5,2-0.9,3-1.4c1.6-0.7,2.6-1.8,2.4-3.7c-0.2-1.5,0-3-0.2-4.4c-0.2-1.5-1.2-2.2-2.6-1.8
		c-1.3,0.3-1.9,1.5-1.6,2.9c0.2,0.7,0.4,1.3,0.4,2c0,1-0.8,1.6-1.8,1.5c-0.9-0.1-1.5-0.7-1.6-1.7c-0.1-2.2,1.5-4.3,3.9-4.9
		c1.6-0.4,3.1-0.2,4.5,0.5c1.8,0.9,2.4,2.4,2.4,4.3c0,5.1-0.1,10.2-0.1,15.3c0,0.2,0,0.4,0,0.6c0,0.6-0.1,1.4,0.7,1.6
		c0.8,0.2,1.3-0.4,1.6-1C117,35.7,117.3,35,117.6,34.2z M111.1,24.6c-1,0.5-1.9,1.1-2.9,1.5c-0.8,0.4-1.4,0.9-1.6,1.8
		c-0.5,2.8-0.6,5.6,0,8.4c0.3,1.5,1.7,1.8,2.8,0.8c1-0.8,1.6-1.9,1.6-3.2C111.1,30.8,111.1,27.6,111.1,24.6z"/>
	<path d="M50.5,37.5c0.8,0,1.6,0,2.3,0c0,0.1,0,0.1,0,0.2c-3.1,0-6.1,0-9.2,0c0-0.1,0-0.1,0-0.2c0.9,0,1.8-0.1,2.7-0.1
		c0-7.1,0-14.2,0-21.4c-0.9,0-1.8,0-2.7,0c0-0.1,0-0.2,0-0.3c0.3,0,0.5-0.1,0.8-0.1c1.6,0,3.2,0,4.8,0c0.9,0,1.3,0.2,1.1,1.1
		c0,0.1,0,0.2-0.1,0.1c0.5-0.4,1.1-0.7,1.6-1.1c1.3-0.9,2.9-0.9,4,0.1c1,0.9,1.2,3,0.4,4.1c-0.3,0.3-0.9,0.6-1.3,0.6
		c-0.4,0-1-0.5-1-0.9c-0.1-0.7,0-1.4,0.1-2.1c0-0.7,0.5-1.5-0.3-1.9c-0.7-0.4-1.5,0.2-1.8,0.8c-0.6,0.9-1.3,2-1.4,3
		c-0.1,5.9-0.1,11.8-0.1,17.7C50.4,37.1,50.4,37.2,50.5,37.5z"/>
	<path d="M140.4,38.8c0-2.9,0-5.8,0-8.7c0.1,0,0.1,0,0.2-0.1c0.1,0.2,0.2,0.3,0.2,0.5c0.6,2.1,1.2,4.1,2.5,5.8
		c0.8,1,1.7,1.8,3.1,1.6c1.2-0.2,1.7-1.1,1.9-2.2c0.3-1.6-0.1-3.1-1.1-4.4c-1.3-1.6-2.7-3-4-4.6c-0.7-0.8-1.3-1.8-1.9-2.7
		c-1.1-1.9-1.2-4-0.5-6.1c1-2.9,3.8-3.8,6.3-2c0,0,0.1,0,0.1,0.1c1.5,1,1.7,1,2.1-0.8c0-0.1,0.1-0.2,0.3-0.2c0,2.7,0,5.4,0,8.1
		c-0.1,0-0.1,0-0.2,0c-0.3-0.9-0.5-1.9-0.8-2.7c-0.5-1.2-1.1-2.5-1.8-3.6c-0.4-0.6-1.1-1.1-1.7-1.2c-1.6-0.4-2.9,1-2.4,2.8
		c0.2,1,0.6,1.9,1.2,2.7c1.4,1.8,2.8,3.6,4.3,5.2c2.4,2.6,3.1,5.5,2.1,8.9c-0.8,2.5-3.1,3.8-5.2,3.2c-0.5-0.2-1-0.5-1.5-0.7
		c-1.2-0.7-1.8-0.5-2.5,0.7c-0.1,0.2-0.3,0.4-0.4,0.7C140.5,38.8,140.4,38.8,140.4,38.8z"/>
	<path d="M75.8,30c0.2,0.5,0.3,1,0.5,1.5c0.5,1.8,1.2,3.7,2.5,5.1c0.6,0.6,1.5,1.1,2.3,1.2c1.1,0.2,2-0.7,2.3-2
		c0.5-2-0.3-3.7-1.6-5.2c-1.4-1.6-2.9-3.2-4.3-4.9c-1.9-2.3-2.6-4.8-1.7-7.7c1-3.1,3.8-4.1,6.5-2.2c0.1,0.1,0.3,0.2,0.4,0.3
		c0.9,0.7,1.4,0.5,1.6-0.6c0.1-0.2,0.1-0.5,0.4-0.7c0,2.7,0,5.4,0,8.1c-0.1,0-0.1,0-0.2,0.1c-0.1-0.3-0.2-0.7-0.3-1
		c-0.7-1.7-1.3-3.4-2.2-5.1c-0.3-0.6-1.1-1.2-1.9-1.4c-1.5-0.4-2.7,0.8-2.5,2.6c0.2,1.6,1,2.8,2,4c1.3,1.6,2.6,3,4,4.5
		c2.3,2.6,2.7,5.6,1.5,8.9c-0.9,2.5-4,3.7-6.4,2.2c-1.5-1-2-0.8-2.9,0.8c-0.1,0.1-0.2,0.2-0.4,0.6c0-3.1,0-6,0-8.9
		C75.6,30,75.7,30,75.8,30z"/>
	<path d="M142.6,11c0.1-0.3,0.2-0.6,0.3-0.8c0.4-1,0.8-1.9,1.1-2.9c0.4-1.2,0.3-1.3-0.9-1.8c-1-0.4-1.5-1.3-1.2-2.6
		c0.2-1,1-1.7,2-1.7c1,0,1.7,0.6,1.7,1.6c0,1.1-0.1,2.2-0.4,3.2c-0.6,1.7-1.4,3.3-2.1,4.9c-0.1,0.1-0.2,0.2-0.3,0.3
		C142.8,11.1,142.7,11,142.6,11z"/>
</g>
</svg>
