<svg width="56" height="30" viewBox="0 0 56 30" fill="none" xmlns="http://www.w3.org/2000/svg">
<path d="M50.2701 0H5.72833C5.54279 0 5.35692 0 5.1717 0.000849337C5.01534 0.00198179 4.8593 0.00339735 4.70293 0.00707781C4.36233 0.015005 4.01878 0.0325579 3.68244 0.0846506C3.34514 0.13456 3.01833 0.227593 2.71277 0.360685C2.0985 0.630513 1.59921 1.06172 1.28678 1.59222C1.13239 1.85622 1.02466 2.13868 0.967157 2.43024C0.906184 2.72099 0.886187 3.01741 0.877008 3.31128C0.873013 3.44621 0.870609 3.58116 0.869796 3.71613C0.869141 3.87581 0.869141 4.03605 0.869141 4.19657V25.8031C0.869141 25.9637 0.869141 26.1236 0.869796 26.2841C0.87078 26.4189 0.872747 26.554 0.877008 26.689C0.886187 26.9823 0.906511 27.279 0.967157 27.5695C1.02454 27.861 1.13217 28.1435 1.28645 28.4075C1.44156 28.6712 1.64404 28.912 1.88635 29.1209C2.12824 29.3303 2.40708 29.5052 2.71244 29.639C3.02288 29.7758 3.34086 29.8627 3.68277 29.9156C4.01878 29.9674 4.36233 29.985 4.70293 29.9929C4.8593 29.996 5.01534 29.9977 5.1717 29.9986C5.35692 29.9997 5.54279 29.9997 5.72833 29.9997H50.2701C50.4553 29.9997 50.6412 29.9997 50.8264 29.9986C50.9824 29.998 51.1385 29.996 51.2955 29.9929C51.6354 29.985 51.979 29.9674 52.316 29.9156C52.6534 29.8657 52.9802 29.7724 53.2857 29.639C53.8996 29.3688 54.3988 28.9377 54.7117 28.4075C54.87 28.1394 54.9703 27.8648 55.0309 27.5695C55.0919 27.279 55.1116 26.9823 55.1208 26.689C55.125 26.554 55.1273 26.4189 55.128 26.2841C55.1293 26.1236 55.1293 25.9637 55.1293 25.8031V4.19686C55.1293 4.03633 55.1293 3.87609 55.128 3.71585C55.1273 3.58097 55.1249 3.44611 55.1208 3.31128C55.1116 3.01741 55.0919 2.72099 55.0309 2.43024C54.9738 2.13864 54.8662 1.85613 54.7117 1.59222C54.3991 1.06181 53.8998 0.630641 53.2857 0.360685C52.9801 0.22773 52.6533 0.134795 52.316 0.0849337C51.979 0.0325579 51.6354 0.0152881 51.2955 0.00736092C51.1392 0.00393166 50.9828 0.0018554 50.8264 0.00113245C50.6412 0 50.4553 0 50.2701 0Z" fill="#2E2E2E"/>
<path d="M50.2705 1L50.8186 1.00085C50.9667 1.0017 51.1152 1.00311 51.2644 1.00651C51.5243 1.01274 51.8279 1.02491 52.1111 1.0688C52.357 1.10702 52.5635 1.16505 52.7615 1.25225C53.1578 1.42624 53.4797 1.70455 53.6807 2.04695C53.781 2.21682 53.8479 2.39405 53.8922 2.60836C53.9426 2.85014 53.9567 3.11315 53.9636 3.33879C53.9679 3.46619 53.9698 3.59359 53.9702 3.72382C53.9718 3.88152 53.9718 4.03893 53.9718 4.1969V25.8035C53.9718 25.9614 53.9718 26.1189 53.9705 26.2797C53.9698 26.4071 53.9679 26.5345 53.9639 26.6619C53.9567 26.8872 53.9426 27.1502 53.8915 27.3948C53.8543 27.5894 53.783 27.778 53.6801 27.954C53.4786 28.2965 53.1562 28.5748 52.7596 28.7487C52.5629 28.8353 52.357 28.8934 52.1134 28.9313C51.8246 28.9757 51.508 28.9879 51.2696 28.9936C51.1198 28.9964 50.9707 28.9984 50.8176 28.999C50.6356 29.0001 50.4527 29.0001 50.2705 29.0001H5.72148C5.54118 29.0001 5.36089 29.0001 5.17731 28.999C5.02978 28.9984 4.88226 28.9967 4.73476 28.9939C4.49087 28.9882 4.1742 28.9757 3.88769 28.9316C3.66116 28.899 3.44166 28.8369 3.23665 28.7476C3.04 28.6613 2.86051 28.5485 2.70494 28.4135C2.54887 28.2789 2.41852 28.1238 2.31877 27.954C2.21575 27.777 2.14436 27.5875 2.107 27.392C2.05586 27.1477 2.04144 26.8858 2.03488 26.6622C2.03118 26.5343 2.02899 26.4064 2.02833 26.2785L2.02734 25.9028V4.09782L2.028 3.72269C2.02868 3.59461 2.03086 3.46655 2.03456 3.33851C2.04177 3.11428 2.05586 2.8524 2.10733 2.6061C2.14476 2.41099 2.21616 2.2219 2.3191 2.04525C2.41875 1.87595 2.54857 1.72137 2.70592 1.58576C2.86187 1.45086 3.04155 1.33811 3.23829 1.25169C3.4428 1.16295 3.66161 1.1013 3.88736 1.0688C4.17092 1.02491 4.47481 1.01274 4.73509 1.00651C4.88326 1.00311 5.03176 1.0017 5.17895 1.00085L5.72869 1H50.2705Z" fill="white"/>
<path d="M15.1322 10.1271C15.5924 9.63028 15.9045 8.96298 15.8222 8.28125C15.1489 8.31013 14.3274 8.66487 13.8514 9.1623C13.4243 9.5881 13.0463 10.2831 13.1446 10.9363C13.9006 10.9929 14.6559 10.6101 15.1322 10.1271Z" fill="#2E2E2E"/>
<path d="M15.8136 11.0643C14.7154 11.0077 13.7824 11.6023 13.2583 11.6023C12.7338 11.6023 11.9309 11.0927 11.0626 11.1065C9.93259 11.1207 8.88424 11.6728 8.31056 12.5504C7.13109 14.3057 7.99914 16.9103 9.14649 18.3401C9.70345 19.0478 10.3748 19.8264 11.2593 19.7984C12.0952 19.7701 12.4227 19.3312 13.4382 19.3312C14.4535 19.3312 14.7485 19.7984 15.6333 19.7842C16.5505 19.7701 17.1242 19.0764 17.6811 18.3686C18.3204 17.5618 18.5816 16.7832 18.598 16.7408C18.5816 16.7266 16.8291 16.1459 16.8128 14.4048C16.7964 12.9468 18.1889 12.2531 18.2545 12.2104C17.4681 11.2059 16.2394 11.0927 15.8132 11.0643" fill="#2E2E2E"/>
<path d="M26.7582 9.09082C29.144 9.09082 30.8057 10.5112 30.8057 12.579C30.8057 14.6543 29.1099 16.082 26.6985 16.082H24.057V19.7104H22.1484V9.09082H26.7582ZM24.057 14.6984H26.2468C27.9088 14.6984 28.8542 13.9258 28.8542 12.5864C28.8542 11.2473 27.9085 10.4818 26.2553 10.4818H24.057V14.6984Z" fill="#2E2E2E"/>
<path d="M31.2793 17.5094C31.2793 16.1479 32.4807 15.368 34.6961 15.2502L37.0734 15.1251V14.5362C37.0734 13.6755 36.4175 13.2044 35.2501 13.2044C34.287 13.2044 33.5881 13.6311 33.4439 14.2859H31.7222C31.7736 12.91 33.2731 11.9092 35.3012 11.9092C37.4825 11.9092 38.9056 12.8953 38.9056 14.426V19.7098H37.1419V18.4366H37.0993C36.5964 19.2681 35.4884 19.7905 34.287 19.7905C32.5148 19.7905 31.2793 18.8783 31.2793 17.5094ZM37.0734 16.8251V16.2289L34.9518 16.3467C33.7586 16.4129 33.137 16.7954 33.137 17.465C33.137 18.1127 33.7845 18.5323 34.7984 18.5323C36.0933 18.5323 37.0734 17.8183 37.0734 16.8251Z" fill="#2E2E2E"/>
<path d="M40.527 22.5503V21.2774C40.6464 21.2918 40.9358 21.3065 41.0892 21.3065C41.9327 21.3065 42.41 20.9979 42.6998 20.2027L42.8702 19.7319L39.6406 12.0049H41.6344L43.8842 18.2747H43.9268L46.1763 12.0049H48.1192L44.7703 20.1217C44.0032 21.9837 43.1256 22.5947 41.2682 22.5947C41.1233 22.5947 40.6546 22.58 40.527 22.5503Z" fill="#2E2E2E"/>
</svg>
