<svg width="18" height="22" viewBox="0 0 18 22" fill="none" xmlns="http://www.w3.org/2000/svg">
<path d="M8.533 0C7.944 0 7.467 0.478 7.467 1.067V2.133C7.467 2.155 7.467 2.177 7.469 2.199C5.40631 2.45866 3.50931 3.46226 2.1341 5.0214C0.75889 6.58055 4.09179e-05 8.58803 0 10.667L0 16.251C0 17.291 0.843 18.133 1.882 18.133H15.184C16.224 18.133 17.066 17.29 17.066 16.251V10.666C17.0655 8.58752 16.3066 6.58066 14.9316 5.02195C13.5567 3.46325 11.6602 2.45984 9.598 2.2L9.6 2.134V1.067C9.6 0.477 9.122 0 8.533 0ZM8.533 21.333C8.81311 21.333 9.09048 21.2778 9.34926 21.1706C9.60805 21.0634 9.84319 20.9063 10.0413 20.7083C10.2393 20.5102 10.3964 20.2751 10.5036 20.0163C10.6108 19.7575 10.666 19.4801 10.666 19.2H6.4C6.4 20.378 7.355 21.333 8.533 21.333Z" fill="white"/>
</svg>
