<svg width="26" height="27" viewBox="0 0 26 27" fill="none" xmlns="http://www.w3.org/2000/svg">
<path d="M21.2065 22.7383H4.79403C4.5941 22.7373 4.40136 22.6636 4.25183 22.5309C4.10229 22.3982 4.00621 22.2156 3.98153 22.0172L2.53934 9.01719C2.52651 8.90392 2.53766 8.78922 2.57207 8.68054C2.60647 8.57187 2.66336 8.47165 2.73903 8.38639C2.81471 8.30114 2.90747 8.23277 3.0113 8.18571C3.11513 8.13866 3.22769 8.11398 3.34168 8.11328H22.6589C22.7729 8.114 22.8854 8.1387 22.9892 8.18576C23.093 8.23282 23.1858 8.30119 23.2615 8.38644C23.3371 8.47169 23.394 8.5719 23.4284 8.68056C23.4629 8.78923 23.474 8.90392 23.4612 9.01719L22.019 22.0172C21.9943 22.2156 21.8982 22.3982 21.7487 22.5309C21.5992 22.6636 21.4064 22.7373 21.2065 22.7383Z" stroke="#444B59" stroke-width="1.625" stroke-linecap="round" stroke-linejoin="round"/>
<path d="M8.9375 11.3633V8.11328C8.9375 7.03584 9.36551 6.00253 10.1274 5.24066C10.8892 4.47879 11.9226 4.05078 13 4.05078C14.0774 4.05078 15.1108 4.47879 15.8726 5.24066C16.6345 6.00253 17.0625 7.03584 17.0625 8.11328V11.3633" stroke="#444B59" stroke-width="1.625" stroke-linecap="round" stroke-linejoin="round"/>
</svg>
