<svg width="23" height="23" viewBox="0 0 23 23" fill="none" xmlns="http://www.w3.org/2000/svg">
<path d="M7.2 16.875L11.25 12.825L15.3 16.875L16.875 15.3L12.825 11.25L16.875 7.2L15.3 5.625L11.25 9.675L7.2 5.625L5.625 7.2L9.675 11.25L5.625 15.3L7.2 16.875ZM11.25 22.5C9.69375 22.5 8.23125 22.2047 6.8625 21.6141C5.49375 21.0234 4.30312 20.2219 3.29062 19.2094C2.27812 18.1969 1.47656 17.0063 0.885938 15.6375C0.295312 14.2688 0 12.8062 0 11.25C0 9.69375 0.295312 8.23125 0.885938 6.8625C1.47656 5.49375 2.27812 4.30312 3.29062 3.29062C4.30312 2.27812 5.49375 1.47656 6.8625 0.885938C8.23125 0.295312 9.69375 0 11.25 0C12.8062 0 14.2688 0.295312 15.6375 0.885938C17.0063 1.47656 18.1969 2.27812 19.2094 3.29062C20.2219 4.30312 21.0234 5.49375 21.6141 6.8625C22.2047 8.23125 22.5 9.69375 22.5 11.25C22.5 12.8062 22.2047 14.2688 21.6141 15.6375C21.0234 17.0063 20.2219 18.1969 19.2094 19.2094C18.1969 20.2219 17.0063 21.0234 15.6375 21.6141C14.2688 22.2047 12.8062 22.5 11.25 22.5ZM11.25 20.25C13.7625 20.25 15.8906 19.3781 17.6344 17.6344C19.3781 15.8906 20.25 13.7625 20.25 11.25C20.25 8.7375 19.3781 6.60938 17.6344 4.86563C15.8906 3.12188 13.7625 2.25 11.25 2.25C8.7375 2.25 6.60938 3.12188 4.86563 4.86563C3.12188 6.60938 2.25 8.7375 2.25 11.25C2.25 13.7625 3.12188 15.8906 4.86563 17.6344C6.60938 19.3781 8.7375 20.25 11.25 20.25Z" fill="#1D1B20"/>
</svg>
