<svg width="38" height="25" viewBox="0 0 38 25" fill="none" xmlns="http://www.w3.org/2000/svg">
<path opacity="0.07" d="M35 0.5H3C1.3 0.5 0 1.8 0 3.5V21.5C0 23.2 1.4 24.5 3 24.5H35C36.7 24.5 38 23.2 38 21.5V3.5C38 1.8 36.6 0.5 35 0.5Z" fill="black"/>
<path d="M35 1.5C36.1 1.5 37 2.4 37 3.5V21.5C37 22.6 36.1 23.5 35 23.5H3C1.9 23.5 1 22.6 1 21.5V3.5C1 2.4 1.9 1.5 3 1.5H35Z" fill="white"/>
<path d="M18.0932 12.4757V15.6757H17.0752V7.77574H19.7662C20.0886 7.77028 20.409 7.82861 20.7088 7.94737C21.0086 8.06613 21.282 8.24297 21.5132 8.46774C21.7322 8.67214 21.9088 8.91769 22.0329 9.19038C22.157 9.46306 22.2261 9.75753 22.2363 10.0569C22.2466 10.3564 22.1977 10.6549 22.0925 10.9354C21.9872 11.2159 21.8278 11.4729 21.6232 11.6917L21.5132 11.8077C21.0432 12.2547 20.4152 12.4977 19.7662 12.4817L18.0932 12.4757ZM18.0932 8.74374V11.5317H19.7912C20.1682 11.5437 20.5322 11.3967 20.7962 11.1277C20.985 10.9309 21.1118 10.6829 21.1608 10.4146C21.2098 10.1462 21.1788 9.86943 21.0717 9.61857C20.9646 9.36771 20.7861 9.15387 20.5585 9.00366C20.3308 8.85345 20.064 8.7735 19.7912 8.77374L18.0932 8.74374ZM24.5772 10.0917C25.2272 10.0617 25.8632 10.2797 26.3552 10.7047C26.8002 11.1347 27.0372 11.7347 27.0052 12.3537V15.6877H26.0362V14.9217H25.9872C25.8134 15.209 25.5677 15.446 25.2743 15.6093C24.9809 15.7726 24.6499 15.8565 24.3142 15.8527C23.7661 15.8705 23.2316 15.6801 22.8182 15.3197C22.6223 15.16 22.4654 14.9577 22.3592 14.7284C22.253 14.499 22.2003 14.2485 22.2052 13.9957C22.1937 13.7403 22.2433 13.4859 22.3499 13.2535C22.4565 13.0211 22.6171 12.8176 22.8182 12.6597C23.3116 12.3049 23.9088 12.1238 24.5162 12.1447C25.0332 12.1247 25.5462 12.2377 26.0062 12.4757V12.2677C26.0096 12.0958 25.9738 11.9253 25.9015 11.7692C25.8293 11.6131 25.7225 11.4755 25.5892 11.3667C25.3215 11.1234 24.9709 10.9917 24.6092 10.9987C24.3465 10.9963 24.0875 11.0608 23.8568 11.1863C23.626 11.3117 23.431 11.494 23.2902 11.7157L22.3952 11.1517C22.6382 10.8035 22.9663 10.5233 23.3483 10.3378C23.7302 10.1522 24.1533 10.0675 24.5772 10.0917ZM23.2902 14.0197C23.2878 14.1493 23.3173 14.2774 23.376 14.3928C23.4348 14.5083 23.5211 14.6075 23.6272 14.6817C23.8502 14.8577 24.1272 14.9507 24.4122 14.9447C24.8412 14.9437 25.2522 14.7747 25.5582 14.4727C25.8632 14.1867 26.0362 13.7877 26.0362 13.3697C25.6512 13.0961 25.1835 12.9639 24.7122 12.9957C24.3463 12.9813 23.9854 13.0844 23.6822 13.2897C23.5621 13.3701 23.4636 13.4786 23.3953 13.6059C23.3269 13.7332 23.2908 13.8753 23.2902 14.0197ZM32.5762 10.2697L29.1862 18.0597H28.1382L29.4192 15.3317L27.1952 10.2697H28.2982L29.9102 14.1547L31.4792 10.2697H32.5762Z" fill="#5F6368"/>
<path d="M13.986 11.7833C13.986 11.4753 13.962 11.1673 13.913 10.8633H9.62305V12.6103H12.074C12.0241 12.8879 11.9187 13.1526 11.7641 13.3886C11.6094 13.6245 11.4087 13.8268 11.174 13.9833V15.1173H12.638C13.0832 14.6866 13.4331 14.1674 13.6653 13.5931C13.8975 13.0189 14.0067 12.4023 13.986 11.7833Z" fill="#4285F4"/>
<path d="M9.62915 16.2219C10.7355 16.2523 11.8118 15.86 12.6391 15.1249L11.1731 13.9849C10.8209 14.2108 10.4218 14.3533 10.0062 14.4017C9.59055 14.4501 9.16936 14.4031 8.77463 14.2643C8.3799 14.1255 8.02204 13.8984 7.72824 13.6005C7.43444 13.3026 7.21245 12.9416 7.07915 12.5449H5.57715V13.7149C5.953 14.468 6.5312 15.1014 7.2469 15.5442C7.96261 15.987 8.78753 16.2217 9.62915 16.2219Z" fill="#34A853"/>
<path d="M7.07893 12.5495C6.88872 11.9868 6.88872 11.3772 7.07893 10.8145V9.64453H5.57693C5.25672 10.276 5.08984 10.974 5.08984 11.682C5.08984 12.39 5.25672 13.0881 5.57693 13.7195L7.07893 12.5495Z" fill="#FF5F00"/>
<path d="M9.62915 8.93921C10.2762 8.92739 10.9016 9.17182 11.3691 9.61921L12.6691 8.32621C11.8402 7.54822 10.7408 7.12387 9.60415 7.14321C8.76752 7.14741 7.94839 7.38322 7.23758 7.82449C6.52677 8.26577 5.95206 8.89527 5.57715 9.64321L7.07915 10.8142C7.25477 10.2743 7.59524 9.80302 8.05266 9.46668C8.51007 9.13035 9.06142 8.94587 9.62915 8.93921Z" fill="#EA4335"/>
</svg>
