<svg width="20" height="21" viewBox="0 0 20 21" fill="none" xmlns="http://www.w3.org/2000/svg">
<path d="M9.14 5.00271L10 5.88371L10.86 5.00271C11.2111 4.63855 11.631 4.34774 12.0954 4.14716C12.5597 3.94658 13.0593 3.84023 13.5651 3.83428C14.0709 3.82833 14.5729 3.92289 15.0418 4.11248C15.5108 4.30207 15.9374 4.58291 16.297 4.93871L16.361 5.00271C17.859 6.53871 17.879 9.01671 16.423 10.5787L16.361 10.6447L10 17.1667L3.64 10.6427C2.12 9.08571 2.12 6.55971 3.64 5.00171C3.99648 4.63237 4.4237 4.33863 4.89617 4.13801C5.36865 3.93738 5.87669 3.83398 6.39 3.83398C6.90331 3.83398 7.41135 3.93738 7.88383 4.13801C8.3563 4.33863 8.78352 4.63337 9.14 5.00271Z" stroke="white" stroke-width="1.667" stroke-linejoin="round"/>
</svg>
