<svg width="18" height="18" viewBox="0 0 18 18" fill="none" xmlns="http://www.w3.org/2000/svg">
<path d="M13.4587 4.38477H13.467M4.70866 0.634766H13.042C15.3432 0.634766 17.2087 2.50025 17.2087 4.80143V13.1348C17.2087 15.436 15.3432 17.3014 13.042 17.3014H4.70866C2.40747 17.3014 0.541992 15.436 0.541992 13.1348V4.80143C0.541992 2.50025 2.40747 0.634766 4.70866 0.634766ZM12.2087 8.4431C12.3115 9.13664 12.193 9.84495 11.8701 10.4673C11.5472 11.0896 11.0363 11.5943 10.41 11.9095C9.78375 12.2247 9.07403 12.3344 8.38181 12.223C7.6896 12.1117 7.05013 11.7848 6.55436 11.2891C6.05859 10.7933 5.73177 10.1538 5.62038 9.46161C5.50899 8.76939 5.61871 8.05968 5.93393 7.43341C6.24915 6.80714 6.75381 6.29622 7.37615 5.9733C7.99848 5.65038 8.70679 5.53192 9.40033 5.63477C10.1078 5.73967 10.7627 6.06932 11.2684 6.57502C11.7741 7.08072 12.1038 7.73566 12.2087 8.4431Z" stroke="white" stroke-linecap="round" stroke-linejoin="round"/>
</svg>
