<svg width="38" height="25" viewBox="0 0 38 25" fill="none" xmlns="http://www.w3.org/2000/svg">
<path opacity="0.07" d="M35 0.5H3C1.3 0.5 0 1.8 0 3.5V21.5C0 23.2 1.4 24.5 3 24.5H35C36.7 24.5 38 23.2 38 21.5V3.5C38 1.8 36.6 0.5 35 0.5Z" fill="black"/>
<path d="M35 1.5C36.1 1.5 37 2.4 37 3.5V21.5C37 22.6 36.1 23.5 35 23.5H3C1.9 23.5 1 22.6 1 21.5V3.5C1 2.4 1.9 1.5 3 1.5H35Z" fill="white"/>
<path d="M23.9 8.8C24.1 7.8 23.9 7.1 23.3 6.5C22.7 5.8 21.6 5.5 20.2 5.5H16.1C15.8 5.5 15.6 5.7 15.5 6L14 16.1C14 16.3 14.1 16.5 14.3 16.5H17L17.4 13.1L19.2 10.9L23.9 8.8Z" fill="#003087"/>
<path d="M23.8996 8.80078L23.6996 9.00078C23.1996 11.8008 21.4996 12.8008 19.0996 12.8008H17.9996C17.6996 12.8008 17.4996 13.0008 17.3996 13.3008L16.7996 17.2008L16.5996 18.2008C16.5996 18.4008 16.6996 18.6008 16.8996 18.6008H18.9996C19.2996 18.6008 19.4996 18.4008 19.4996 18.2008V18.1008L19.8996 15.7008V15.6008C19.8996 15.4008 20.1996 15.2008 20.3996 15.2008H20.6996C22.7996 15.2008 24.3996 14.4008 24.7996 12.0008C24.9996 11.0008 24.8996 10.2008 24.3996 9.60078C24.2996 9.10078 24.0996 8.90078 23.8996 8.80078Z" fill="#3086C8"/>
<path d="M23.3004 8.60078C23.2004 8.50078 23.1004 8.50078 23.0004 8.50078C22.9004 8.50078 22.8004 8.50078 22.7004 8.40078C22.4004 8.30078 22.0004 8.30078 21.6004 8.30078H18.6004C18.5004 8.30078 18.4004 8.30078 18.4004 8.40078C18.2004 8.50078 18.1004 8.60078 18.1004 8.80078L17.4004 13.2008V13.3008C17.4004 13.0008 17.7004 12.8008 18.0004 12.8008H19.3004C21.8004 12.8008 23.4004 11.8008 23.9004 9.00078V8.80078C23.8004 8.70078 23.6004 8.60078 23.4004 8.60078H23.3004Z" fill="#012169"/>
</svg>
