<svg width="24" height="24" viewBox="0 0 24 24" fill="none" xmlns="http://www.w3.org/2000/svg">
<path fill-rule="evenodd" clip-rule="evenodd" d="M11.7669 2.40087C15.3569 2.34687 17.6039 3.80087 18.6619 6.35087C19.0109 7.19287 19.3839 8.74087 19.1039 10.0259C18.9919 10.5379 18.9599 11.0739 18.8089 11.5559C18.5009 12.5389 18.1009 13.4089 17.5709 14.1589C16.8509 15.1789 15.7609 15.8649 14.3889 16.2109C13.1769 16.5159 12.0609 16.0589 11.4129 15.5679C11.2069 15.4119 10.9299 15.2079 10.8529 14.9249H10.8239C10.7779 15.4399 10.5799 15.9869 10.4409 16.4559C10.2479 17.1059 10.2109 17.7769 9.96888 18.3849C9.7083 19.0331 9.39317 19.658 9.02688 20.2529C8.84288 20.5549 8.33488 21.5879 7.96588 21.5999C7.92588 21.5219 7.90888 21.4919 7.90588 21.3549C7.78788 21.1649 7.87088 20.8469 7.81888 20.5889C7.73688 20.1889 7.67388 19.4659 7.75888 19.0589V18.4159C7.85488 17.9739 7.85088 17.5219 7.96588 17.0989C8.21588 16.1789 8.35588 15.2039 8.61388 14.2509C8.86288 13.3359 9.09088 12.3349 9.29188 11.4039C9.33688 11.1939 9.08188 10.5889 9.02688 10.3629C8.85288 9.64987 8.98488 8.66287 9.20288 8.12687C9.47788 7.45287 10.2829 6.42387 11.3249 6.68787C12.1629 6.89987 12.6959 7.80587 12.4149 8.95387C12.1199 10.1589 11.7379 11.2379 11.4719 12.4439C11.4039 12.7549 11.5219 13.0849 11.5899 13.2709C11.8379 13.9429 12.5899 14.5949 13.5939 14.3429C15.1139 13.9599 15.7869 12.5829 16.2459 11.0969C16.3699 10.6949 16.3549 10.3159 16.4519 9.87187C16.6559 8.93687 16.5699 7.54087 16.2749 6.81087C15.8029 5.64087 14.9219 4.89087 13.7119 4.48287L12.7089 4.29987C12.1489 4.17187 11.0829 4.36387 10.7049 4.48287C9.01488 5.01787 7.96788 5.90987 7.31688 7.51487C7.09488 8.06087 6.97288 8.61487 6.93388 9.38287L6.90388 9.65887C7.03388 10.3449 7.04788 10.7989 7.31688 11.3119C7.44888 11.5639 7.76388 11.7629 7.81688 12.0769C7.84888 12.2619 7.71288 12.5409 7.66988 12.6899C7.60488 12.9139 7.62888 13.1699 7.52288 13.3629C7.33088 13.7119 6.80888 13.4499 6.57988 13.3019C5.38788 12.5319 4.40488 10.3069 4.95988 8.15787C5.04488 7.82587 5.04988 7.53787 5.16588 7.23887C5.88888 5.39487 6.96788 4.26087 8.52488 3.28887C9.10788 2.92487 9.89488 2.74487 10.6169 2.55487L11.7659 2.40087H11.7669Z" fill="#2E2E2E"/>
</svg>
