<svg width="33" height="33" viewBox="0 0 33 33" fill="none" xmlns="http://www.w3.org/2000/svg">
<mask id="path-2-inside-1_597_1258" fill="white">
<path d="M0.75 16.3398C0.75 7.50329 7.91344 0.339844 16.75 0.339844C25.5866 0.339844 32.75 7.50329 32.75 16.3398C32.75 25.1764 25.5866 32.3398 16.75 32.3398C7.91344 32.3398 0.75 25.1764 0.75 16.3398Z"/>
</mask>
<path d="M16.75 32.3398V31.3398C8.46573 31.3398 1.75 24.6241 1.75 16.3398H0.75H-0.25C-0.25 25.7287 7.36116 33.3398 16.75 33.3398V32.3398ZM32.75 16.3398H31.75C31.75 24.6241 25.0343 31.3398 16.75 31.3398V32.3398V33.3398C26.1388 33.3398 33.75 25.7287 33.75 16.3398H32.75ZM16.75 0.339844V1.33984C25.0343 1.33984 31.75 8.05557 31.75 16.3398H32.75H33.75C33.75 6.951 26.1388 -0.660156 16.75 -0.660156V0.339844ZM16.75 0.339844V-0.660156C7.36116 -0.660156 -0.25 6.951 -0.25 16.3398H0.75H1.75C1.75 8.05557 8.46573 1.33984 16.75 1.33984V0.339844Z" fill="#444B59" fill-opacity="0.8" mask="url(#path-2-inside-1_597_1258)"/>
<rect x="11.75" y="11.3398" width="10" height="10" rx="5" fill="#444B59" fill-opacity="0.8"/>
</svg>
