<svg width="23" height="23" viewBox="0 0 23 23" fill="none" xmlns="http://www.w3.org/2000/svg">
<path d="M4.88864 21.9928C4.80064 21.9928 4.71264 21.9488 4.62464 21.9048C4.49264 21.8168 4.40464 21.5968 4.44864 21.4208L6.38464 14.2048L0.576636 9.49683C0.400636 9.40883 0.356636 9.18883 0.400636 9.01283C0.444636 8.83683 0.620636 8.70483 0.796636 8.70483L8.27664 8.30883L10.9606 1.31283C11.0486 1.18083 11.2246 1.04883 11.4006 1.04883C11.5766 1.04883 11.7526 1.18083 11.7966 1.31283L14.4806 8.30883L21.9606 8.70483C22.1366 8.70483 22.3126 8.83683 22.3566 9.01283C22.4006 9.18883 22.3566 9.36483 22.2246 9.49683L16.4166 14.2048L18.3526 21.4208C18.3966 21.5968 18.3526 21.7728 18.1766 21.9048C18.0446 21.9928 17.8246 22.0368 17.6926 21.9048L11.4006 17.8568L5.10864 21.9048C5.02064 21.9928 4.97664 21.9928 4.88864 21.9928Z" fill="#E9908E"/>
</svg>
