<svg width="66" height="14" viewBox="0 0 66 14" fill="none" xmlns="http://www.w3.org/2000/svg">
<g clip-path="url(#clip0_45_4423)">
<g clip-path="url(#clip1_45_4423)">
<g clip-path="url(#clip2_45_4423)">
<path d="M58.4526 0H6.99805C3.13205 0 -0.00195312 3.13401 -0.00195312 7C-0.00195312 10.866 3.13205 14 6.99805 14H58.4526C62.3186 14 65.4526 10.866 65.4526 7C65.4526 3.13401 62.3186 0 58.4526 0Z" fill="#E9908E" fill-opacity="0.69"/>
<path d="M13.3241 9.99239C12.8393 10.2954 12.1499 10.303 11.5666 10.0303C11.0135 9.76512 10.5438 9.25755 10.2332 8.59845C10.1272 8.37876 10.0438 8.14391 9.97565 7.88633C10.4453 8.17421 10.9756 8.34845 11.5059 8.34845C11.8923 8.34845 12.2863 8.25754 12.6499 8.04542C12.8847 7.90906 13.0969 7.72724 13.2711 7.50754C13.8847 6.73482 14.0514 5.64391 13.6953 4.71967C13.4302 4.03785 12.915 3.50754 12.1953 3.18179C11.5741 2.90148 10.8393 2.79542 10.1347 2.89391C8.67262 3.09088 7.43777 4.0833 6.83171 5.53785C6.70292 5.85603 6.59686 6.19694 6.53625 6.553C6.48322 6.8333 6.67262 7.10603 6.95292 7.15906C7.23322 7.21209 7.50595 7.0227 7.55898 6.74239C7.61201 6.46209 7.68777 6.18936 7.79383 5.93936C8.25595 4.82573 9.18019 4.07573 10.2711 3.92421C11.2105 3.79542 12.3544 4.15906 12.7181 5.09088C12.9378 5.65906 12.8317 6.37118 12.4529 6.85603C12.362 6.96967 12.2484 7.06815 12.1272 7.14391C11.2863 7.63633 10.165 6.91664 9.71049 6.22724C9.56656 6.00755 9.24837 5.93179 9.0211 6.06058C8.8014 6.18936 8.73322 6.45451 8.62716 6.65906C8.42262 7.06058 8.19534 7.44694 7.98322 7.84088C7.73322 8.31058 7.48322 8.78027 7.22565 9.24997C7.15747 9.37118 7.09686 9.49239 7.02868 9.61361C6.89231 9.86361 6.9908 10.1818 7.2408 10.3182C7.31656 10.3636 7.39989 10.3788 7.48322 10.3788C7.67262 10.3788 7.84686 10.2803 7.94534 10.106L8.97565 8.18179C9.05898 8.49239 9.16504 8.78027 9.29383 9.04542C9.70292 9.92421 10.3544 10.606 11.1196 10.9697C11.5438 11.1742 11.9984 11.2727 12.4453 11.2727C12.9529 11.2727 13.4529 11.1439 13.8696 10.8788C14.112 10.7272 14.1878 10.4091 14.0363 10.1591C13.8847 9.91664 13.5666 9.84088 13.3166 9.99239" fill="#FF5855"/>
<path d="M19.9365 5.49244C20.1335 5.8485 20.2319 6.25759 20.2319 6.72728C20.2319 7.06819 20.1941 7.3788 20.1259 7.6591H15.7244C15.7168 7.71971 15.7092 7.79547 15.7092 7.8788C15.7092 8.28031 15.8456 8.63637 16.1107 8.92425C16.3759 9.21971 16.7395 9.36365 17.1865 9.36365C17.588 9.36365 17.9138 9.28031 18.141 9.10607C18.3759 8.93183 18.5653 8.67425 18.7168 8.33334H19.9516C19.785 8.97728 19.4516 9.47728 18.9516 9.83334C18.4516 10.1894 17.8532 10.3712 17.1562 10.3712C16.6107 10.3712 16.141 10.2576 15.7319 10.0379C15.3229 9.81819 15.0123 9.50759 14.7926 9.11365C14.5729 8.71971 14.4668 8.27274 14.4668 7.78031C14.4668 7.14395 14.5956 6.56819 14.8607 6.05304C15.1259 5.53789 15.5047 5.12122 15.9971 4.81819C16.4895 4.51516 17.0653 4.36365 17.7319 4.36365C18.2395 4.36365 18.6789 4.46213 19.0577 4.6591C19.4365 4.85607 19.7244 5.13637 19.9213 5.49244H19.9365ZM18.9516 6.56062C18.9516 6.18183 18.838 5.8788 18.6032 5.67425C18.3683 5.46213 18.0577 5.35607 17.6562 5.35607C17.2395 5.35607 16.8683 5.48486 16.5577 5.73486C16.2471 5.98486 16.035 6.31819 15.9289 6.71971H18.9441C18.9516 6.68183 18.9592 6.6288 18.9592 6.56062H18.9516Z" fill="#FF5855"/>
<path d="M26.286 10.303H25.2405L25.2254 9.53786C25.0057 9.79543 24.733 9.99998 24.4224 10.1515C24.1117 10.303 23.7557 10.3712 23.3542 10.3712C22.8769 10.3712 22.4602 10.2651 22.0966 10.0454C21.733 9.82574 21.4451 9.5227 21.2405 9.13634C21.036 8.74998 20.9375 8.31816 20.9375 7.83331C20.9375 7.1818 21.0739 6.59089 21.3542 6.06058C21.6345 5.53028 22.0133 5.11361 22.4905 4.81058C22.9678 4.50755 23.4981 4.35604 24.0814 4.35604C24.983 4.35604 25.6042 4.65907 25.9375 5.2727L26.4678 2.27271H27.7027L26.2784 10.2954L26.286 10.303ZM25.3996 8.15149C25.5663 7.80301 25.6496 7.43937 25.6496 7.06058C25.6496 6.53028 25.5208 6.12877 25.2633 5.84846C25.0057 5.56816 24.6648 5.42422 24.2254 5.42422C23.8239 5.42422 23.4678 5.53028 23.1572 5.74998C22.8466 5.96967 22.6193 6.24998 22.4527 6.59846C22.286 6.94695 22.2027 7.31058 22.2027 7.6818C22.2027 8.2121 22.3314 8.61361 22.589 8.90149C22.8466 9.18937 23.1875 9.33331 23.6269 9.33331C24.0284 9.33331 24.3845 9.22725 24.6951 9.00755C24.9981 8.78786 25.233 8.50755 25.3996 8.15149Z" fill="#FF5855"/>
<path d="M33.2549 5.49244C33.4518 5.8485 33.5503 6.25759 33.5503 6.72728C33.5503 7.06819 33.5124 7.3788 33.4442 7.6591H29.0427C29.0352 7.71971 29.0276 7.79547 29.0276 7.8788C29.0276 8.28031 29.1639 8.63637 29.4291 8.92425C29.6942 9.21971 30.0579 9.36365 30.5049 9.36365C30.9064 9.36365 31.2321 9.28031 31.4594 9.10607C31.6942 8.93183 31.8836 8.67425 32.0352 8.33334H33.27C33.1033 8.97728 32.77 9.47728 32.27 9.83334C31.77 10.1894 31.1715 10.3712 30.4745 10.3712C29.9291 10.3712 29.4594 10.2576 29.0503 10.0379C28.6412 9.81819 28.3306 9.50759 28.1109 9.11365C27.8912 8.71971 27.7852 8.27274 27.7852 7.78031C27.7852 7.14395 27.9139 6.56819 28.1791 6.05304C28.4442 5.53789 28.823 5.12122 29.3155 4.81819C29.8079 4.51516 30.3836 4.36365 31.0503 4.36365C31.5579 4.36365 31.9973 4.46213 32.3761 4.6591C32.7549 4.85607 33.0427 5.13637 33.2397 5.49244H33.2549ZM32.27 6.56062C32.27 6.18183 32.1564 5.8788 31.9215 5.67425C31.6867 5.46213 31.3761 5.35607 30.9745 5.35607C30.5579 5.35607 30.1867 5.48486 29.8761 5.73486C29.5655 5.98486 29.3533 6.31819 29.2473 6.71971H32.2624C32.27 6.68183 32.2776 6.6288 32.2776 6.56062H32.27Z" fill="#FF5855"/>
<path d="M39.7256 5.49244C39.9225 5.8485 40.021 6.25759 40.021 6.72728C40.021 7.06819 39.9831 7.3788 39.9149 7.6591H35.5134C35.5059 7.71971 35.4983 7.79547 35.4983 7.8788C35.4983 8.28031 35.6346 8.63637 35.8998 8.92425C36.1649 9.21971 36.5286 9.36365 36.9756 9.36365C37.3771 9.36365 37.7028 9.28031 37.9301 9.10607C38.1649 8.93183 38.3543 8.67425 38.5059 8.33334H39.7407C39.574 8.97728 39.2407 9.47728 38.7407 9.83334C38.2407 10.1894 37.6422 10.3712 36.9453 10.3712C36.3998 10.3712 35.9301 10.2576 35.521 10.0379C35.1119 9.81819 34.8013 9.50759 34.5816 9.11365C34.3619 8.71971 34.2559 8.27274 34.2559 7.78031C34.2559 7.14395 34.3846 6.56819 34.6498 6.05304C34.915 5.53789 35.2937 5.12122 35.7862 4.81819C36.2786 4.51516 36.8543 4.36365 37.521 4.36365C38.0286 4.36365 38.468 4.46213 38.8468 4.6591C39.2256 4.85607 39.5134 5.13637 39.7104 5.49244H39.7256ZM38.7407 6.56062C38.7407 6.18183 38.6271 5.8788 38.3922 5.67425C38.1574 5.46213 37.8468 5.35607 37.4453 5.35607C37.0286 5.35607 36.6574 5.48486 36.3468 5.73486C36.0362 5.98486 35.824 6.31819 35.718 6.71971H38.7331C38.7407 6.68183 38.7483 6.6288 38.7483 6.56062H38.7407Z" fill="#FF5855"/>
<path d="M49.9988 6.25759C49.9988 6.47728 49.9761 6.74244 49.9306 7.03789L49.3549 10.303H48.1049L48.6882 7.02274C48.7261 6.78031 48.7488 6.58334 48.7488 6.4394C48.7488 6.12122 48.6655 5.87122 48.4988 5.69698C48.3321 5.52274 48.0973 5.43183 47.7791 5.43183C47.3397 5.43183 46.9609 5.59092 46.6655 5.91668C46.37 6.24244 46.1655 6.68183 46.067 7.24244L45.514 10.303H44.2791L44.8625 7.02274C44.9003 6.79547 44.9231 6.60607 44.9231 6.44698C44.9231 6.12122 44.8397 5.86365 44.6731 5.6894C44.5064 5.51516 44.264 5.42425 43.9382 5.42425C43.514 5.42425 43.1428 5.59092 42.8397 5.92425C42.5367 6.25759 42.3321 6.70456 42.2337 7.25759L41.6958 10.2955H40.4609L41.4912 4.43183H42.567L42.5821 5.15153C42.8094 4.9091 43.0594 4.71213 43.3246 4.57577C43.5897 4.43183 43.9079 4.36365 44.2791 4.36365C44.6806 4.36365 45.0367 4.45456 45.3397 4.63637C45.6428 4.81819 45.8549 5.08334 45.9761 5.44698C46.2109 5.12122 46.5064 4.85607 46.8549 4.6591C47.2034 4.46213 47.6049 4.36365 48.0594 4.36365C48.62 4.36365 49.0821 4.51516 49.4534 4.82577C49.8246 5.13637 50.0064 5.61365 50.0064 6.25001L49.9988 6.25759Z" fill="#FF5855"/>
<path d="M53.1259 2.28027L51.7016 10.303H50.4668L51.891 2.28027H53.1259Z" fill="#FF5855"/>
<path d="M55.4987 8.96207L57.8926 4.43177H59.2411L55.3775 11.2651C55.1881 11.606 55.0138 11.8712 54.8699 12.053C54.7184 12.2348 54.5517 12.3712 54.3623 12.4621C54.1729 12.553 53.9381 12.5909 53.6502 12.5909H52.332L52.5138 11.5H53.3396C53.5745 11.5 53.7563 11.4545 53.8926 11.3712C54.0214 11.2878 54.1578 11.1212 54.2941 10.8787L54.5896 10.3409L53.3775 4.42419H54.6729L55.4987 8.9545V8.96207Z" fill="#FF5855"/>
</g>
</g>
</g>
<defs>
<clipPath id="clip0_45_4423">
<rect width="65.45" height="14" fill="white"/>
</clipPath>
<clipPath id="clip1_45_4423">
<rect width="65.45" height="14" fill="white"/>
</clipPath>
<clipPath id="clip2_45_4423">
<rect width="65.4545" height="14" fill="white" transform="translate(-0.00195312)"/>
</clipPath>
</defs>
</svg>
