<svg width="48" height="20" viewBox="0 0 48 20" fill="none" xmlns="http://www.w3.org/2000/svg">
<path d="M9.755 6.766L7.425 7.952C6.893 7.035 6.16 6.565 5.14 6.565C4.03 6.565 3.475 6.90067 3.475 7.572C3.475 8.288 4.296 8.445 6.138 8.847C7.98 9.25 10.069 9.832 10.069 12.137C10.069 14.375 8.339 15.717 5.476 15.717C3.168 15.717 1.456 14.733 0.660004 12.987L2.99 11.824C3.478 12.901 4.321 13.457 5.476 13.457C6.674 13.457 7.273 13.122 7.273 12.405C7.273 11.689 6.45 11.533 4.605 11.13C2.761 10.727 0.680004 10.145 0.680004 7.84C0.680004 5.67 2.389 4.304 5.14 4.304C7.293 4.304 8.913 5.177 9.755 6.766ZM11.71 0.5H14.594V5.602C15.348 4.774 16.436 4.304 17.679 4.304C20.164 4.304 21.939 6.229 21.939 8.959V15.605H19.055V8.959C19.055 7.684 18.123 6.743 16.835 6.743C15.548 6.743 14.595 7.705 14.595 8.959V15.605H11.709L11.71 0.5ZM23.826 5.11C24.78 4.439 26.156 3.97 27.621 3.97C31.527 3.97 34.367 6.633 34.367 10.281C34.367 13.682 31.926 16.055 28.53 16.055C25.623 16.055 23.538 14.085 23.538 11.445C23.538 9.655 24.605 8.334 26.112 7.819L27.332 9.901C26.512 10.281 26.202 10.841 26.202 11.534C26.202 12.674 27.157 13.481 28.532 13.481C30.219 13.481 31.55 12.138 31.55 10.326C31.55 8.199 29.886 6.589 27.623 6.589C26.7324 6.58139 25.8596 6.83823 25.115 7.327L23.826 5.11ZM38.85 14.33V19.5H35.965V4.417H38.783V5.78C39.649 4.84 40.869 4.303 42.245 4.303C45.285 4.303 47.66 6.787 47.66 10.01C47.66 13.233 45.285 15.717 42.245 15.717C40.891 15.717 39.715 15.203 38.85 14.33ZM44.797 9.988C44.797 8.13 43.51 6.765 41.757 6.765C40.026 6.765 38.717 8.153 38.717 9.988C38.717 11.823 40.026 13.211 41.757 13.211C43.51 13.211 44.799 11.845 44.799 9.988H44.797Z" fill="white"/>
</svg>
