<svg width="38" height="25" viewBox="0 0 38 25" fill="none" xmlns="http://www.w3.org/2000/svg">
<path opacity="0.07" d="M35 0.5H3C1.3 0.5 0 1.8 0 3.5V21.5C0 23.2 1.4 24.5 3 24.5H35C36.7 24.5 38 23.2 38 21.5V3.5C38 1.8 36.6 0.5 35 0.5Z" fill="black"/>
<path d="M35.889 0.5C37.05 0.5 38 1.482 38 2.682V22.318C38 23.518 37.05 24.5 35.889 24.5H2.11C0.95 24.5 0 23.518 0 22.318V2.682C0 1.482 0.95 0.5 2.111 0.5H35.889Z" fill="#5A31F4"/>
<path d="M9.35001 11.868C8.33301 11.645 7.88001 11.558 7.88001 11.163C7.88001 10.791 8.18601 10.605 8.80001 10.605C9.34001 10.605 9.73401 10.843 10.025 11.309C10.0353 11.3263 10.0517 11.339 10.0711 11.3446C10.0904 11.3502 10.1111 11.3482 10.129 11.339L11.275 10.755C11.2848 10.7498 11.2934 10.7427 11.3003 10.734C11.3072 10.7254 11.3123 10.7155 11.3153 10.7048C11.3183 10.6942 11.3191 10.683 11.3177 10.6721C11.3163 10.6611 11.3126 10.6505 11.307 10.641C10.832 9.81 9.95401 9.355 8.79701 9.355C7.27701 9.355 6.33301 10.11 6.33301 11.311C6.33301 12.586 7.48301 12.908 8.50301 13.131C9.52301 13.353 9.97701 13.441 9.97701 13.836C9.97701 14.232 9.64501 14.418 8.98401 14.418C8.37201 14.418 7.91901 14.136 7.64401 13.588C7.63438 13.5692 7.61774 13.555 7.59771 13.5485C7.57767 13.5419 7.55586 13.5436 7.53701 13.553L6.39401 14.123C6.37461 14.133 6.35995 14.1503 6.35321 14.1711C6.34647 14.1919 6.34819 14.2145 6.35801 14.234C6.81201 15.154 7.74201 15.671 8.98501 15.671C10.568 15.671 11.524 14.929 11.524 13.691C11.524 12.453 10.369 12.093 9.35101 11.871L9.35001 11.868ZM15.49 9.355C14.84 9.355 14.266 9.587 13.854 10.001C13.8484 10.007 13.841 10.0111 13.8329 10.0127C13.8249 10.0144 13.8165 10.0135 13.809 10.0102C13.8014 10.0069 13.7951 10.0014 13.7908 9.9944C13.7865 9.98738 13.7845 9.97921 13.785 9.971V7.331C13.7851 7.32041 13.7832 7.3099 13.7792 7.30008C13.7752 7.29026 13.7694 7.28132 13.7619 7.27378C13.7545 7.26625 13.7456 7.26027 13.7359 7.25618C13.7261 7.2521 13.7156 7.25 13.705 7.25H12.27C12.2593 7.25 12.2488 7.25213 12.2389 7.25628C12.2291 7.26042 12.2202 7.26649 12.2127 7.27413C12.2053 7.28178 12.1994 7.29083 12.1955 7.30077C12.1916 7.31071 12.1897 7.32133 12.19 7.332V15.526C12.1897 15.5367 12.1916 15.5473 12.1955 15.5572C12.1994 15.5672 12.2053 15.5762 12.2127 15.5839C12.2202 15.5915 12.2291 15.5976 12.2389 15.6017C12.2488 15.6059 12.2593 15.608 12.27 15.608H13.703C13.7138 15.6081 13.7244 15.6061 13.7344 15.602C13.7444 15.5979 13.7534 15.5919 13.7609 15.5842C13.7685 15.5766 13.7744 15.5675 13.7784 15.5575C13.7824 15.5475 13.7843 15.5368 13.784 15.526V11.932C13.784 11.237 14.312 10.705 15.023 10.705C15.733 10.705 16.249 11.226 16.249 11.932V15.526C16.2487 15.5368 16.2506 15.5475 16.2546 15.5575C16.2586 15.5675 16.2645 15.5766 16.2721 15.5842C16.2796 15.5919 16.2887 15.5979 16.2986 15.602C16.3086 15.6061 16.3192 15.6081 16.33 15.608H17.763C17.7738 15.6081 17.7844 15.6061 17.7944 15.602C17.8044 15.5979 17.8134 15.5919 17.8209 15.5842C17.8285 15.5766 17.8344 15.5675 17.8384 15.5575C17.8424 15.5475 17.8443 15.5368 17.844 15.526V11.932C17.844 10.422 16.864 9.355 15.49 9.355ZM20.753 9.12C19.975 9.12 19.246 9.36 18.723 9.708C18.7055 9.71932 18.6929 9.7369 18.6879 9.75715C18.6829 9.7774 18.6858 9.79881 18.696 9.817L19.328 10.905C19.3332 10.9143 19.3402 10.9224 19.3485 10.9289C19.3569 10.9354 19.3665 10.9402 19.3767 10.943C19.387 10.9458 19.3977 10.9466 19.4082 10.9452C19.4187 10.9438 19.4288 10.9403 19.438 10.935C19.8348 10.6928 20.2912 10.5661 20.756 10.569C22.006 10.569 22.926 11.46 22.926 12.637C22.926 13.64 22.19 14.382 21.257 14.382C20.497 14.382 19.969 13.936 19.969 13.305C19.969 12.944 20.121 12.648 20.517 12.439C20.5268 12.434 20.5355 12.427 20.5425 12.4185C20.5495 12.41 20.5547 12.4001 20.5577 12.3895C20.5607 12.3789 20.5615 12.3678 20.56 12.3568C20.5585 12.3459 20.5548 12.3354 20.549 12.326L19.953 11.308C19.9435 11.2914 19.9284 11.2788 19.9105 11.2724C19.8925 11.266 19.8728 11.2662 19.855 11.273C19.056 11.572 18.496 12.291 18.496 13.257C18.496 14.717 19.648 15.807 21.256 15.807C23.133 15.807 24.483 14.494 24.483 12.612C24.483 10.594 22.913 9.12 20.753 9.12ZM28.675 9.343C27.951 9.343 27.302 9.613 26.83 10.089C26.804 10.116 26.761 10.096 26.761 10.06V9.488C26.7613 9.47733 26.7594 9.46671 26.7555 9.45677C26.7516 9.44683 26.7458 9.43778 26.7383 9.43013C26.7308 9.42249 26.7219 9.41642 26.7121 9.41228C26.7023 9.40813 26.6917 9.406 26.681 9.406H25.284C25.2733 9.406 25.2628 9.40813 25.2529 9.41228C25.2431 9.41642 25.2342 9.42249 25.2267 9.43013C25.2193 9.43778 25.2134 9.44683 25.2095 9.45677C25.2056 9.46671 25.2037 9.47733 25.204 9.488V17.67C25.2039 17.6806 25.2058 17.6911 25.2098 17.7009C25.2138 17.7107 25.2196 17.7197 25.2271 17.7272C25.2345 17.7348 25.2434 17.7407 25.2532 17.7448C25.2629 17.7489 25.2734 17.751 25.284 17.751H26.717C26.7277 17.7511 26.7383 17.7491 26.7482 17.7451C26.7581 17.7411 26.767 17.7351 26.7746 17.7276C26.7821 17.72 26.7881 17.711 26.7921 17.7012C26.7961 17.6913 26.7981 17.6807 26.798 17.67V14.987C26.798 14.951 26.841 14.933 26.867 14.957C27.3569 15.4147 28.0046 15.6655 28.675 15.657C30.357 15.657 31.668 14.284 31.668 12.5C31.668 10.716 30.355 9.343 28.675 9.343ZM28.404 14.272C27.448 14.272 26.723 13.504 26.723 12.489C26.723 11.474 27.446 10.706 28.404 10.706C29.362 10.706 30.084 11.461 30.084 12.489C30.084 13.516 29.372 14.272 28.404 14.272Z" fill="white"/>
</svg>
