<svg width="38" height="25" viewBox="0 0 38 25" fill="none" xmlns="http://www.w3.org/2000/svg">
<path d="M17.7 0.5V24.5H10.5C9.2 24.5 8.4 23.5 8.7 22.2L13.1 2.8C13.4 1.5 15 0.5 16.3 0.5H17.7ZM30.3 0.5C29 0.5 27.4 1.5 27.1 2.8L22.6 22.2C22.3 23.5 23.1 24.5 24.4 24.5H19.5V0.5H30.3Z" fill="#005B9A"/>
<path d="M16.2996 0.5C14.9996 0.5 13.3996 1.6 13.0996 2.8L8.69961 22.2C8.39961 23.5 9.19961 24.5 10.4996 24.5H1.59961C0.799609 24.5 0.0996094 23.9 0.0996094 23.1V2.1C0.0996094 1.3 0.799609 0.5 1.59961 0.5H16.2996Z" fill="#E9908E"/>
<path d="M30.2997 0.5C28.9997 0.5 27.3997 1.6 27.0997 2.8L22.6997 22.2C22.3997 23.5 23.1997 24.5 24.4997 24.5H9.99969H10.4997C9.19969 24.5 8.3997 23.5 8.6997 22.2L13.0997 2.8C13.3997 1.5 14.9997 0.5 16.2997 0.5H30.2997Z" fill="#0E73B9"/>
<path d="M38.0001 2.1V23.1C38.0001 23.9 37.4001 24.5 36.5001 24.5H24.4001C23.1001 24.5 22.3001 23.4 22.6001 22.2L27.1001 2.8C27.4001 1.5 29.0001 0.5 30.3001 0.5H36.5001C37.4001 0.5 38.0001 1.2 38.0001 2.1Z" fill="#059DA4"/>
<path d="M14.8779 14.1445H15.0179C15.1579 14.1445 15.2979 14.0745 15.2979 14.0045L15.7179 13.3745H16.9079L16.6979 13.7245H18.0979L17.8879 14.3545H16.2079C15.9979 14.6345 15.7879 14.7745 15.5079 14.7745H14.6679L14.8779 14.1445ZM14.6679 15.0545H17.6779L17.4679 15.7545H16.2779L16.0679 16.4545H17.2579L17.0479 17.1545H15.8579L15.5779 18.2045C15.5079 18.3445 15.5779 18.4845 15.8579 18.4145H16.8379L16.6279 19.1145H14.7379C14.3879 19.1145 14.2479 18.9045 14.3879 18.4845L14.7379 17.1545H13.9679L14.1779 16.4545H14.9479L15.1579 15.7545H14.4579L14.6679 15.0545ZM19.4979 13.3045V13.7245C19.4979 13.7245 20.0579 13.3045 20.6179 13.3045H22.5779L21.8079 15.9645C21.7379 16.2445 21.4579 16.4545 21.0379 16.4545H18.7979L18.3079 18.3445C18.3079 18.4145 18.3079 18.4845 18.4479 18.4845H18.8679L18.7279 19.0445H17.6079C17.1879 19.0445 17.0479 18.9045 17.1179 18.6945L18.5879 13.3045H19.4979ZM21.1779 14.0745H19.4279L19.2179 14.7745C19.2179 14.7745 19.4979 14.5645 19.9879 14.5645H21.0379L21.1779 14.0745ZM20.5479 15.7545C20.6879 15.7545 20.7579 15.7545 20.7579 15.6145L20.8979 15.2645H19.1479L19.0079 15.8245L20.5479 15.7545ZM19.3579 16.5945H20.3379V17.0145H20.6179C20.7579 17.0145 20.8279 16.9445 20.8279 16.8745L20.8979 16.5945H21.7379L21.5979 17.0845C21.5279 17.4345 21.2479 17.5745 20.8279 17.6445H20.2679V18.4145C20.2679 18.5545 20.3379 18.6245 20.6179 18.6245H21.1079L20.9679 19.1845H19.7779C19.4279 19.1845 19.2879 19.0445 19.2879 18.6945L19.3579 16.5945ZM23.5579 14.1445L23.7679 13.3045H24.9579L24.8879 13.5845C24.8879 13.5845 25.4479 13.3045 25.9379 13.3045H27.4079L27.1979 14.1445H26.9879L25.8679 17.9945H26.0779L25.8679 18.7645H25.6579L25.5879 19.1145H24.3979L24.4679 18.7645H22.2979L22.5079 17.9945H22.7179L23.8379 14.1445H23.5579ZM24.8179 14.1445L24.5379 15.1945C24.5379 15.1945 25.0279 14.9845 25.4479 14.9145C25.5179 14.5645 25.6579 14.1445 25.6579 14.1445H24.8179ZM24.3279 15.6845L24.0479 16.8045C24.0479 16.8045 24.6079 16.5245 25.0279 16.5245C25.1679 16.1045 25.2379 15.7545 25.2379 15.7545L24.3279 15.6845ZM24.5379 17.9945L24.7479 17.2245H23.9079L23.6979 17.9945H24.5379ZM27.4079 13.3045H28.5279L28.5979 13.7245C28.5979 13.7945 28.6679 13.8645 28.8079 13.8645H29.0179L28.8079 14.5645H28.0379C27.7579 14.5645 27.5479 14.4945 27.5479 14.2145L27.4079 13.3045ZM27.0579 14.7745H30.6279L30.4179 15.5445H29.2279L29.0179 16.2445H30.1379L29.9279 17.0145H28.6679L28.3879 17.4345H29.0179L29.1579 18.2745C29.1579 18.3445 29.2279 18.4145 29.3679 18.4145H29.5779L29.3679 19.1145H28.6679C28.3179 19.1145 28.1079 19.0445 28.1079 18.7645L27.9679 17.9945L27.4079 18.8345C27.2679 19.0445 27.0579 19.1845 26.7779 19.1845H25.7279L25.9379 18.4845H26.2879C26.4279 18.4845 26.4979 18.4145 26.6379 18.2745L27.4779 17.0145H26.4279L26.6379 16.2445H27.8279L28.0379 15.5445H26.8479L27.0579 14.7745ZM7.31793 9.73445C7.17793 10.4345 6.89793 10.9245 6.40793 11.2745C5.91793 11.6245 5.28793 11.8345 4.51793 11.8345C3.81793 11.8345 3.25793 11.6245 2.97793 11.2745C2.76793 10.9945 2.62793 10.7145 2.62793 10.2945C2.62793 10.1545 2.62793 9.94445 2.69793 9.73445L3.53793 5.81445H4.72793L3.95793 9.73445V10.0145C3.95793 10.2245 4.02793 10.3645 4.09793 10.5045C4.23793 10.7145 4.44793 10.7845 4.79793 10.7845C5.14793 10.7845 5.49793 10.7145 5.70793 10.5045C5.91793 10.2945 6.12793 10.0845 6.19793 9.73445L6.96793 5.81445H8.15793L7.31793 9.73445ZM8.43793 8.19445H9.27793L9.20793 8.68445L9.34793 8.54445C9.62793 8.26445 9.97793 8.12445 10.3979 8.12445C10.7479 8.12445 11.0279 8.26445 11.1679 8.47445C11.3079 8.68445 11.3779 8.96445 11.3079 9.38445L10.8179 11.7645H9.90793L10.3279 9.59445C10.3979 9.31445 10.3979 9.10445 10.3279 9.03445C10.2579 8.89445 10.1179 8.89445 9.97793 8.89445C9.76793 8.89445 9.55793 8.96445 9.41793 9.10445C9.27793 9.24445 9.13793 9.45445 9.13793 9.73445L8.71793 11.7645H7.80793L8.43793 8.19445ZM18.2379 8.19445H19.0779L19.0079 8.68445L19.1479 8.54445C19.4279 8.26445 19.7779 8.12445 20.1979 8.12445C20.5479 8.12445 20.8279 8.26445 20.9679 8.47445C21.1079 8.68445 21.1779 8.96445 21.1079 9.38445L20.6179 11.7645H19.7079L20.1279 9.52445C20.1979 9.31445 20.1279 9.10445 20.0579 9.03445C19.9879 8.89445 19.8479 8.89445 19.7079 8.89445C19.4979 8.89445 19.2879 8.96445 19.1479 9.10445C19.0079 9.24445 18.8679 9.45445 18.8679 9.73445L18.4479 11.7645H17.5379L18.2379 8.19445ZM12.4279 8.19445H13.4079L12.6379 11.6945H11.6579L12.4279 8.19445ZM12.7779 6.86445H13.7579L13.5479 7.70445H12.5679L12.7779 6.86445ZM14.1779 11.4145C13.9679 11.2045 13.8279 10.8545 13.8279 10.4345V10.2245C13.8279 10.1545 13.8279 10.0145 13.8979 9.94445C14.0379 9.38445 14.2479 8.89445 14.5979 8.61445C14.9479 8.26445 15.4379 8.12445 15.9279 8.12445C16.3479 8.12445 16.6979 8.26445 16.9779 8.47445C17.1879 8.68445 17.3279 9.03445 17.3279 9.45445V9.66445C17.3279 9.73445 17.3279 9.87445 17.2579 9.94445C17.1179 10.5045 16.9079 10.9245 16.5579 11.2745C16.2079 11.6245 15.7179 11.7645 15.2279 11.7645C14.8779 11.7645 14.5279 11.6245 14.1779 11.4145ZM16.0679 10.7145C16.2079 10.5045 16.3479 10.2245 16.4179 9.87445V9.52445C16.4179 9.31445 16.3479 9.17445 16.2779 9.03445C16.2164 8.96602 16.1406 8.9118 16.056 8.87554C15.9714 8.83928 15.8799 8.82185 15.7879 8.82445C15.5079 8.82445 15.2979 8.89445 15.1579 9.10445C15.0179 9.31445 14.8779 9.59445 14.8079 9.94445V10.2245C14.8079 10.4345 14.8779 10.5745 14.9479 10.7145C15.0879 10.8545 15.2279 10.9245 15.4379 10.9245C15.7179 10.9945 15.8579 10.9245 16.0679 10.7145ZM22.5779 6.02445H25.0979C25.5879 6.02445 25.9379 6.16445 26.2179 6.37445C26.4979 6.58445 26.5679 6.93445 26.5679 7.28445V7.56445C26.5679 7.63445 26.5679 7.77445 26.4979 7.84445C26.4279 8.33445 26.1479 8.82445 25.7979 9.10445C25.3779 9.45445 24.9579 9.59445 24.3979 9.59445H22.9979L22.5779 11.6245H21.3879L22.5779 6.02445ZM23.1379 8.61445H24.2579C24.5379 8.61445 24.7479 8.54445 24.9579 8.40445C25.0979 8.26445 25.2379 8.05445 25.3079 7.77445V7.49445C25.3079 7.28445 25.2379 7.14445 25.0979 7.07445C24.9579 7.00445 24.7479 6.93445 24.3979 6.93445H23.4879L23.1379 8.61445ZM31.8179 12.3245C31.4679 13.0945 31.1179 13.5845 30.9079 13.7945C30.6979 14.0045 30.2779 14.4945 29.2979 14.4945L29.3679 13.8645C30.2079 13.5845 30.6279 12.4645 30.9079 11.9045L30.6279 8.12445H31.8179L31.8879 10.5045L32.7979 8.19445H33.8479L31.8179 12.3245ZM28.8779 8.47445L28.4579 8.75445C28.0379 8.40445 27.6179 8.19445 26.9179 8.54445C25.9379 9.03445 25.0279 12.6745 27.8279 11.4845L27.9679 11.6945H29.0879L29.7879 8.40445L28.8779 8.47445ZM28.3179 10.2945C28.1079 10.8545 27.7579 11.1345 27.4079 11.0645C27.1279 10.9245 27.0579 10.4345 27.1979 9.87445C27.4079 9.31445 27.7579 9.03445 28.1079 9.10445C28.3879 9.24445 28.4579 9.73445 28.3179 10.2945Z" fill="white"/>
</svg>
