<svg width="30" height="30" viewBox="0 0 30 30" fill="none" xmlns="http://www.w3.org/2000/svg">
<path d="M2.64762 25.1401H0.682617V0.775391H21.3654V6.89832H22.7871C26.356 6.89832 29.2492 9.79149 29.2492 13.3604V25.1405H27.0844M20.4073 25.1401H9.32408" stroke="#F7F6F4" stroke-width="1.09756"/>
<path d="M21.3416 15.4106H26.8543V13.8484C26.8543 11.3532 24.8311 9.33008 22.3356 9.33008H21.3412L21.3416 15.4106ZM27.0398 25.6954C27.1118 25.2621 27.0975 24.8187 26.9978 24.3909C26.8981 23.963 26.7149 23.559 26.4588 23.2021C26.2026 22.8452 25.8785 22.5423 25.5051 22.3109C25.1317 22.0794 24.7163 21.924 24.2826 21.8534C23.849 21.7829 23.4057 21.7986 22.9782 21.8997C22.5507 22.0008 22.1473 22.1853 21.7912 22.4426C21.4351 22.6999 21.1333 23.025 20.9031 23.3992C20.6729 23.7733 20.5188 24.1893 20.4497 24.6231C20.3126 25.4947 20.5262 26.3852 21.0438 27.0998C21.5613 27.8144 22.3407 28.295 23.2116 28.4367C24.0825 28.5783 24.974 28.3695 25.6914 27.8557C26.4087 27.342 26.8935 26.5656 27.0398 25.6954ZM9.28052 25.6951C9.35617 25.2601 9.3448 24.8145 9.24708 24.384C9.14935 23.9535 8.96721 23.5466 8.71119 23.187C8.45517 22.8273 8.13036 22.522 7.75556 22.2887C7.38076 22.0555 6.96341 21.8988 6.52767 21.8279C6.09194 21.757 5.64646 21.7732 5.21703 21.8757C4.78761 21.9781 4.38276 22.1646 4.02592 22.4246C3.66908 22.6845 3.36734 23.0126 3.13816 23.3899C2.90898 23.7672 2.75691 24.1863 2.69076 24.6228C2.54867 25.4966 2.75945 26.391 3.27676 27.1094C3.79407 27.8278 4.57554 28.3113 5.4493 28.4536C6.32315 28.5958 7.21769 28.3851 7.93618 27.8678C8.65466 27.3504 9.13823 26.5689 9.28052 25.6951Z" stroke="#F7F6F4" stroke-width="1.09756"/>
<path d="M5.02054 28.3562C3.56957 28.597 2.11676 28.9087 0.682617 29.3049M22.0876 28.0742C18.2418 27.6308 13.1981 27.3538 7.9492 27.9092M29.1833 29.3126C29.1833 29.3126 27.3687 28.8655 24.4364 28.4364" stroke="#F7F6F4" stroke-width="1.09756"/>
</svg>
