<svg width="20" height="20" viewBox="0 0 20 20" fill="none" xmlns="http://www.w3.org/2000/svg">
<path d="M14.5837 5.41602H14.592M5.83366 1.66602H14.167C16.4682 1.66602 18.3337 3.5315 18.3337 5.83268V14.166C18.3337 16.4672 16.4682 18.3327 14.167 18.3327H5.83366C3.53247 18.3327 1.66699 16.4672 1.66699 14.166V5.83268C1.66699 3.5315 3.53247 1.66602 5.83366 1.66602ZM13.3337 9.47435C13.4365 10.1679 13.318 10.8762 12.9951 11.4985C12.6722 12.1209 12.1613 12.6255 11.535 12.9407C10.9087 13.256 10.199 13.3657 9.50681 13.2543C8.8146 13.1429 8.17513 12.8161 7.67936 12.3203C7.18359 11.8245 6.85677 11.1851 6.74538 10.4929C6.63399 9.80064 6.74371 9.09093 7.05893 8.46466C7.37415 7.83839 7.87881 7.32747 8.50115 7.00455C9.12348 6.68163 9.83179 6.56317 10.5253 6.66602C11.2328 6.77092 11.8877 7.10057 12.3934 7.60627C12.8991 8.11197 13.2288 8.76691 13.3337 9.47435Z" stroke="white" stroke-linecap="round" stroke-linejoin="round"/>
</svg>
