<svg width="20" height="24" viewBox="0 0 20 24" fill="none" xmlns="http://www.w3.org/2000/svg">
<path d="M1.76508 18.5811H0.455078V2.33789H14.2436V6.41984H15.1914C17.5707 6.41984 19.4995 8.34862 19.4995 10.7279V18.5813H18.0563M13.6048 18.5811H6.21605" stroke="#444B59" stroke-width="0.731707"/>
<path d="M14.2274 12.0947H17.9025V11.0532C17.9025 9.3898 16.5538 8.04102 14.8901 8.04102H14.2272L14.2274 12.0947ZM18.0262 18.9513C18.0742 18.6623 18.0647 18.3668 17.9982 18.0815C17.9317 17.7963 17.8096 17.527 17.6389 17.289C17.4681 17.0511 17.252 16.8492 17.0031 16.6949C16.7541 16.5406 16.4772 16.4369 16.1881 16.3899C15.899 16.3429 15.6035 16.3534 15.3185 16.4208C15.0334 16.4882 14.7645 16.6112 14.5271 16.7827C14.2897 16.9542 14.0885 17.1709 13.9351 17.4204C13.7816 17.6699 13.6789 17.9471 13.6328 18.2364C13.5414 18.8175 13.6838 19.4111 14.0289 19.8875C14.3739 20.3639 14.8935 20.6843 15.4741 20.7787C16.0547 20.8732 16.649 20.7339 17.1272 20.3915C17.6055 20.049 17.9287 19.5313 18.0262 18.9513ZM6.18669 18.951C6.23712 18.6611 6.22954 18.364 6.16439 18.077C6.09924 17.79 5.97782 17.5187 5.80714 17.2789C5.63646 17.0392 5.41992 16.8356 5.17005 16.6801C4.92018 16.5246 4.64195 16.4202 4.35146 16.3729C4.06097 16.3256 3.76398 16.3365 3.4777 16.4047C3.19141 16.473 2.92151 16.5974 2.68362 16.7707C2.44573 16.944 2.24457 17.1627 2.09178 17.4142C1.93899 17.6658 1.83761 17.9451 1.79351 18.2361C1.69878 18.8187 1.83931 19.415 2.18418 19.8939C2.52905 20.3728 3.05003 20.6952 3.63254 20.79C4.21511 20.8848 4.81147 20.7444 5.29046 20.3995C5.76945 20.0546 6.09183 19.5336 6.18669 18.951Z" stroke="#444B59" stroke-width="0.731707"/>
<path d="M3.34703 20.7251C2.37971 20.8856 1.41118 21.0934 0.455078 21.3576M14.7251 20.5371C12.1612 20.2415 8.79874 20.0568 5.29947 20.4271M19.4556 21.3627C19.4556 21.3627 18.2458 21.0646 16.2909 20.7785" stroke="#444B59" stroke-width="0.731707"/>
</svg>
